<svg width="554" height="563" viewBox="0 0 554 563" fill="none" xmlns="http://www.w3.org/2000/svg">
<path d="M267.417 53.408C260.137 61.1853 253.981 69.8959 245.858 78.2C228.046 96.4066 200.846 101.325 175.429 102.955C150.01 104.583 123.579 104.059 100.403 114.623C73.9408 126.685 55.5328 151.673 42.8862 177.863C25.6555 213.547 16.9715 254.047 22.8102 293.24C28.6502 332.435 49.9781 369.983 83.3181 391.4C105.033 405.352 132.446 413.567 145.618 435.764C154.599 450.896 187.579 501.705 208.911 506.388C301.273 526.671 334.325 496.724 362.33 495.775C405.733 494.304 432.494 480.536 455.019 464.879C493.501 438.129 532.234 400.391 547.338 354.017C562.694 306.877 550.235 255.508 502.339 235.923C488.055 230.081 471.334 227.395 461.383 215.599C447.083 198.648 454.747 173.343 454.305 151.171C452.445 58.0746 409.413 32.6946 344.309 27.1773C325.082 25.5466 305.183 28.8346 287.907 37.5773C279.426 41.8693 273.081 47.356 267.417 53.408Z" fill="#ACACE3"/>
<path d="M483.035 529.309C483.035 547.734 385.16 562.67 264.425 562.67C143.691 562.67 45.816 547.734 45.816 529.309C45.816 510.884 143.691 495.948 264.425 495.948C385.16 495.948 483.035 510.884 483.035 529.309Z" fill="#D3D7D8"/>
<path d="M270.121 348.463C267.483 355.52 264.779 362.567 260.151 368.603C255.708 374.399 249.58 379.033 242.457 380.915C228.792 384.523 216.377 375.427 206.036 367.707C200.872 363.852 195.767 359.828 190.124 356.684C184.901 353.773 179.428 350.463 173.559 349.087C167.721 347.719 161.163 349.131 158.584 355.101C155.953 361.195 158.583 367.535 162.501 372.368C167.595 378.649 174.267 383.881 181.029 388.247C184.423 390.436 187.967 392.428 191.647 394.095C195.352 395.772 199.143 397.409 203.196 397.933C204.287 398.073 204.689 396.343 203.752 395.879C200.507 394.267 197.035 393.212 193.725 391.735C190.489 390.292 187.327 388.7 184.276 386.899C178.119 383.268 172.423 378.8 167.44 373.673C162.984 369.091 158.051 362.263 161.513 355.679C164.775 349.48 172.808 351.483 177.912 353.744C183.248 356.108 188.577 359.06 193.433 362.295C198.779 365.856 203.78 369.899 209.005 373.627C219.285 380.957 231.449 387.481 244.371 383.503C259.469 378.856 269.079 363.856 272.291 349.06C272.603 347.629 270.624 347.116 270.121 348.463Z" fill="#33444A"/>
<path d="M412.312 428.697C425.476 431.956 435.677 441.468 444.295 451.465C453.213 461.812 460.808 474.265 461.063 488.318C461.188 495.194 459.273 501.51 455.333 507.144C451.557 512.542 446.455 516.977 440.891 520.452C429.084 527.826 414.757 532.29 400.92 533.461C392.72 534.154 384.439 534.438 376.212 534.646C372.015 534.753 367.817 534.777 363.619 534.75C359.232 534.724 354.841 534.37 350.495 535.053C349.52 535.205 349.645 536.668 350.495 536.902C354.556 538.026 358.801 538.006 362.992 538.108C366.893 538.2 370.795 538.184 374.696 538.11C382.588 537.961 390.467 537.528 398.341 536.996C413.076 536 427.8 531.574 440.629 524.241C452.556 517.425 462.931 506.6 464.476 492.428C466.063 477.876 459.103 464.125 450.301 453.048C445.363 446.83 439.736 440.985 433.439 436.136C427.28 431.393 420.355 427.828 412.501 427.3C411.697 427.246 411.54 428.505 412.312 428.697Z" fill="#33444A"/>
<path d="M319.329 447.567C319.329 447.567 363.476 385.276 413.67 357.459C463.865 329.64 474.75 346.572 474.145 368.344C473.541 390.115 448.141 431.239 405.809 462.685C363.476 494.132 329.61 514.089 316.91 516.508C304.21 518.928 286.673 508.647 284.253 501.389C281.834 494.132 319.329 447.567 319.329 447.567Z" fill="#00617C"/>
<path d="M197.572 427.61C197.572 427.61 109.48 381.043 75.8143 389.711C31.2983 401.174 41.9477 438.899 82.265 463.895C122.582 488.891 157.254 505.824 208.054 513.888C258.853 521.951 262.078 518.726 262.078 518.726C262.078 518.726 287.074 509.05 265.304 478.41C243.533 447.768 197.572 427.61 197.572 427.61Z" fill="#00617C"/>
<path d="M386.154 326.313C386.154 326.313 395.528 336.594 402.181 360.18C408.833 383.765 408.59 394.792 408.025 401.001C407.017 412.088 401.978 417.934 401.978 417.934L361.662 396.768C361.662 396.768 360.149 372.276 355.01 362.901C349.869 353.528 346.542 346.572 346.542 346.572L386.154 326.313Z" fill="#FFB894"/>
<path d="M373.648 215.744C366.565 225.629 365.773 238.3 369.128 249.757C372.715 262.005 380.659 272.424 389.113 281.744C397.516 291.008 406.336 299.857 413.944 309.817C421.564 319.794 428.056 330.723 431.676 342.811C433.651 349.398 434.849 356.306 434.613 363.201C434.369 370.262 432.349 376.873 429.035 383.084C422.991 394.41 414.007 404.008 409.752 416.29C405.533 428.468 405.643 442.159 410.288 454.193C412.747 460.562 416.261 466.46 418.627 472.866C420.721 478.537 421.645 484.528 421.232 490.565C420.823 496.556 419.033 502.472 415.804 507.552C412.595 512.605 407.844 516.585 402.645 519.476C390.836 526.041 377.055 527.01 363.815 526.694C360.14 526.605 356.469 526.429 352.799 526.284C350.788 526.204 350.807 529.285 352.799 529.398C366.813 530.194 381.44 530.742 394.928 526.185C406.111 522.408 416.045 515.012 420.768 503.941C425.608 492.596 424.523 480.013 419.888 468.809C417.301 462.56 414.036 456.549 412.072 450.057C410.145 443.684 409.397 437.032 409.887 430.389C410.379 423.71 412.156 417.092 415.121 411.085C417.975 405.308 421.697 400.017 425.241 394.656C428.815 389.249 432.309 383.733 434.641 377.658C437.14 371.148 437.984 364.073 437.519 357.137C435.763 330.953 419.755 308.942 402.385 290.469C393.543 281.066 384.085 272.152 377.453 260.949C371.061 250.156 367.787 237.268 371.115 224.905C371.929 221.877 373.045 219.03 374.68 216.348C375.089 215.678 374.088 215.129 373.648 215.744Z" fill="#33444A"/>
<path d="M358.94 220.179C358.94 220.179 356.522 234.391 353.801 236.205C351.078 238.019 339.588 235.6 337.774 236.508C335.96 237.415 333.541 242.857 342.309 243.764C351.078 244.672 358.637 246.485 360.453 244.067C362.266 241.648 366.5 221.993 366.5 221.993L358.94 220.179Z" fill="#33444A"/>
<path d="M249.581 153.051C249.581 153.051 254.418 123.216 264.297 113.943C274.174 104.671 285.665 101.446 305.42 104.268C325.176 107.09 348.156 113.138 355.614 118.176C363.073 123.216 368.314 129.466 367.709 142.771C367.105 156.075 366.5 175.83 366.5 175.83L372.548 176.838C372.548 176.838 374.966 154.26 373.354 138.335C371.741 122.411 365.693 114.75 341.705 106.687C317.716 98.6232 289.09 95.1965 275.384 100.438C261.676 105.679 254.418 115.758 250.589 126.442C246.758 137.126 243.332 152.85 243.332 152.85L249.581 153.051Z" fill="#33444A"/>
<path d="M358.94 173.915C358.94 173.915 368.012 170.287 377.082 172.706C386.154 175.124 389.178 181.776 387.968 192.36C386.758 202.943 384.34 218.97 377.082 222.295C369.826 225.622 355.01 220.482 352.289 219.876C349.568 219.272 347.148 217.458 347.148 217.458L358.94 173.915Z" fill="#192D34"/>
<path d="M256.737 155.168C256.737 155.168 250.991 149.12 239.502 149.422C228.011 149.725 224.987 161.82 224.081 171.497C223.174 181.172 224.987 198.71 236.175 199.92C247.363 201.129 256.434 198.71 256.434 198.71L256.737 155.168Z" fill="#192D34"/>
<path d="M275.384 221.993C275.384 221.993 257.644 215.945 247.968 211.108C238.292 206.269 231.034 202.641 228.616 203.447C226.197 204.253 200.797 260.697 192.734 290.129C184.67 319.56 181.042 358.667 184.67 385.276C188.3 411.885 193.942 425.191 193.942 425.191C193.942 425.191 248.372 436.48 267.724 437.689C287.076 438.899 326.585 434.06 326.585 434.06C326.585 434.06 325.78 367.94 331.021 344.155C336.262 320.367 341.504 301.015 344.729 295.371C347.954 289.725 360.453 283.679 360.453 283.679C360.453 283.679 342.309 256.665 313.685 240.941C294.654 230.489 275.384 221.993 275.384 221.993Z" fill="#F64F49"/>
<path d="M318.949 361.793C318.205 359.415 317.61 356.763 315.646 355.225C314.341 354.204 312.643 353.864 311.021 353.528C295.71 350.361 280.893 344.824 267.257 337.175C260.567 333.423 254.141 329.155 247.114 326.083C236.126 321.277 224.122 319.632 212.214 319.396C207.051 319.293 195.037 318.203 186.613 319.555C185.614 326.132 184.827 332.813 184.266 339.437C184.642 339.599 185.019 339.743 185.399 339.864C196.497 343.376 202.977 343.751 209.127 354.957C212.378 360.804 215.246 366.943 219.559 372.057C223.87 377.171 229.99 381.245 236.679 381.263C240.606 381.271 244.482 379.896 248.391 380.265C255.915 380.979 261.182 387.653 266.662 392.856C282.401 407.8 304.934 412.856 326.579 415.031C326.666 403.893 326.933 389.399 327.653 375.855C323.642 371.988 320.609 367.112 318.949 361.793Z" fill="#E7CDC1"/>
<path d="M263.994 222.598C263.994 222.598 258.248 239.229 267.32 252.231C276.391 265.233 291.51 270.374 301.49 267.955C311.467 265.535 315.398 257.371 316.003 250.114C316.607 242.857 311.467 234.995 311.467 234.995L263.994 222.598Z" fill="#FFB894"/>
<path d="M267.597 239.187C270.569 243.343 274.818 246.518 279.249 248.971C283.993 251.601 289.087 253.234 294.519 253.579C297.257 253.753 300.022 253.634 302.729 253.189C305.271 252.771 307.685 252.011 310.117 251.183C312.103 250.507 314.099 249.839 316.041 249.038C316.103 242.102 311.467 234.995 311.467 234.995L263.994 222.598C263.994 222.598 262.902 225.761 262.422 230.403C264.041 233.397 265.615 236.415 267.597 239.187Z" fill="#E0BEAF"/>
<path d="M306.628 116.766C306.628 116.766 279.112 116.463 269.134 127.954C259.156 139.445 253.712 162.123 252.503 170.891C251.294 179.661 251.596 209.898 260.063 223.807C268.53 237.717 284.858 247.998 306.628 247.09C328.4 246.183 342.31 233.182 350.474 218.365C358.638 203.547 359.546 185.103 360.755 174.822C361.964 164.542 361.056 149.121 353.8 137.327C346.543 125.535 318.119 115.858 306.628 116.766Z" fill="#FFB894"/>
<path d="M252.201 173.613C252.201 173.613 260.264 159.704 265.507 147.609C270.747 135.513 270.645 128.962 274.577 125.837C279.12 122.225 284.959 126.341 293.627 133.397C302.295 140.452 311.871 146.097 324.772 141.864C337.673 137.63 343.721 129.668 349.164 135.11C354.607 140.553 350.575 150.43 352.187 164.138C353.8 177.846 355.009 183.49 356.017 186.514C357.025 189.538 358.637 194.326 358.637 194.326C358.637 194.326 366.903 167.01 359.243 145.642C351.583 124.276 332.129 114.448 311.769 111.625C291.409 108.804 274.275 117.068 264.497 130.877C255.801 143.158 252.201 173.613 252.201 173.613Z" fill="#A14614"/>
<path d="M307.365 225.211C302.567 223.307 298.046 220.06 294.347 216.484C292.538 214.735 290.811 212.866 289.339 210.822C288.569 209.754 287.846 208.651 287.126 207.551C286.441 206.506 285.686 205.061 284.488 204.555C283.721 204.233 282.878 204.453 282.615 205.323C282.197 206.705 282.906 208.158 283.498 209.392C284.132 210.712 284.932 211.939 285.788 213.124C287.482 215.465 289.361 217.663 291.528 219.58C295.977 223.512 301.015 226.073 306.669 227.81C308.36 228.328 308.933 225.832 307.365 225.211Z" fill="#A14614"/>
<path d="M244.104 149.179C241.805 152.908 240.741 157.193 239.929 161.477C239.133 165.672 238.696 169.956 238.73 174.225C238.768 178.624 239.168 183.055 239.612 187.429C239.817 189.465 240.098 191.488 240.441 193.507C240.806 195.66 241.042 197.972 241.964 199.969C242.281 200.657 243.354 200.292 243.346 199.596C243.325 197.573 242.686 195.576 242.318 193.596C241.942 191.571 241.614 189.535 241.32 187.495C240.696 183.172 240.566 178.876 240.769 174.517C240.962 170.352 241.348 166.189 242.185 162.1C243.041 157.915 244.536 153.932 245.628 149.821C245.872 148.901 244.6 148.373 244.104 149.179Z" fill="#4C5A5F"/>
<path d="M371.648 171.972C371.356 174.002 371.537 176.081 371.565 178.13C371.593 180.208 371.583 182.297 371.533 184.373C371.432 188.721 370.56 193.13 369.623 197.366C368.732 201.396 367.779 205.541 366.412 209.434C365.647 211.617 364.801 213.772 363.873 215.889C363.091 217.68 361.784 219.569 361.451 221.5C361.364 221.99 361.929 222.406 362.328 222.01C363.757 220.582 364.515 218.221 365.324 216.394C366.155 214.52 366.927 212.62 367.636 210.694C369.193 206.473 370.604 202.305 371.499 197.884C372.343 193.702 372.764 189.504 373.169 185.264C373.573 181.016 374.332 176.157 373.189 171.972C372.997 171.266 371.765 171.156 371.648 171.972Z" fill="#4C5A5F"/>
<path d="M314.29 338.912C314.29 338.912 297.961 335.687 289.494 333.067C281.029 330.445 269.538 323.592 266.313 320.771C263.087 317.947 251.798 313.715 245.549 316.94C239.299 320.164 234.261 329.439 238.897 336.091C243.533 342.743 266.313 352.217 274.577 354.837C282.842 357.459 298.365 362.7 305.218 361.892C312.073 361.087 317.111 356.249 317.918 350.605C318.723 344.96 314.29 338.912 314.29 338.912Z" fill="#192D34"/>
<path d="M255.615 330.2C257.038 331.949 259.018 333.398 261.266 333.561C263.514 333.724 265.948 332.242 266.292 330.014C266.831 326.534 262.332 322.189 258.982 321.901C253.967 321.469 253.016 327.008 255.615 330.2Z" fill="#006E87"/>
<path d="M299.001 345.672C301.069 346.571 303.493 346.948 305.565 346.06C307.635 345.171 309.118 342.736 308.399 340.599C307.278 337.26 301.286 335.471 298.178 336.754C293.526 338.675 295.226 344.032 299.001 345.672Z" fill="#006E87"/>
<path d="M241.715 317.447C238.443 322.899 244.05 328.054 247.912 331.239C252.683 335.174 257.736 338.774 263.398 341.327C269.139 343.919 275.135 345.87 281.215 347.495C287.906 349.284 294.682 351.028 301.595 351.664C305.39 352.015 309.392 352.122 313.144 351.346C315.616 350.835 318.523 349.523 318.947 346.754C319.08 345.89 318.1 345.483 317.571 346.174C314.208 350.555 306.819 349.876 301.943 349.492C295.722 349.002 289.554 347.568 283.532 345.975C273.08 343.208 262.799 339.392 253.551 333.736C250.847 332.084 248.403 330.1 246.151 327.872C243.628 325.378 241.106 321.808 242.938 318.162C243.344 317.352 242.187 316.659 241.715 317.447Z" fill="#4C5A5F"/>
<path d="M275.403 326.93C272.856 328.227 270.699 330.069 268.827 332.218C268.368 332.745 267.92 333.283 267.487 333.834C267.044 334.394 266.716 334.931 266.381 335.558C266.201 335.898 265.957 336.193 265.721 336.498C265.479 336.811 265.323 337.166 265.091 337.485C264.685 338.041 264.175 338.523 263.86 339.139C263.732 339.391 264.041 339.645 264.255 339.445C264.728 338.998 265.069 338.413 265.448 337.887C265.661 337.59 265.941 337.377 266.173 337.099C266.436 336.783 266.652 336.411 266.964 336.139C267.455 335.711 267.913 335.326 268.348 334.837C268.812 334.315 269.281 333.797 269.761 333.291C271.652 331.301 273.665 329.378 275.887 327.758C276.38 327.399 275.963 326.645 275.403 326.93Z" fill="#4C5A5F"/>
<path d="M293.432 347.4C293.189 346.713 292.941 346.031 292.695 345.345C292.189 343.937 291.677 342.532 291.183 341.119C290.692 339.711 290.272 338.38 290.124 336.891C289.988 335.544 289.835 334.139 289.367 332.86C289.307 332.844 289.243 332.841 289.185 332.824C288.851 332.723 288.54 332.585 288.239 332.427C288.183 332.492 288.117 332.547 288.088 332.651C287.692 334.055 287.905 335.609 288.357 336.979C288.843 338.443 289.272 339.887 289.681 341.373C290.089 342.863 290.524 344.344 290.951 345.827C291.151 346.524 291.349 347.223 291.553 347.919C291.764 348.64 291.941 349.228 292.696 349.493C292.992 349.597 293.293 349.42 293.457 349.184C293.857 348.605 293.648 348.012 293.432 347.4Z" fill="#4C5A5F"/>
<path d="M292.269 349.42C292.073 349.688 291.886 349.958 291.657 350.201C291.442 350.428 291.214 350.649 291.016 350.892C290.617 351.376 290.304 351.958 289.966 352.488C289.63 353.017 289.282 353.536 289.017 354.105C288.77 354.629 288.429 355.301 288.574 355.894C288.606 356.033 288.773 356.132 288.91 356.086C289.481 355.893 289.873 355.27 290.196 354.793C290.548 354.276 290.824 353.714 291.122 353.164C291.42 352.612 291.794 352.061 292.028 351.48C292.144 351.192 292.24 350.893 292.348 350.604C292.464 350.294 292.628 350.009 292.782 349.72C292.965 349.376 292.492 349.116 292.269 349.42Z" fill="#4C5A5F"/>
<path d="M263.247 340.188C262.767 340.901 262.403 341.596 262.075 342.391C261.782 343.101 261.534 343.827 261.311 344.561C261.088 345.295 260.891 346.037 260.72 346.784C260.546 347.556 260.24 348.497 260.306 349.289C260.391 350.315 261.688 350.471 262.055 349.527C262.192 349.173 262.208 348.773 262.271 348.4C262.334 348.023 262.404 347.645 262.48 347.269C262.634 346.517 262.814 345.771 263.02 345.033C263.431 343.559 263.948 342.125 264.332 340.645C264.506 339.976 263.618 339.637 263.247 340.188Z" fill="#4C5A5F"/>
<path d="M152.619 236.306C152.619 236.306 126.412 252.231 118.248 262.814C110.084 273.398 101.617 287.306 109.48 299.703C117.341 312.102 141.229 324.196 161.791 328.732C182.352 333.268 190.516 333.268 196.867 333.268H210.171C210.171 333.268 208.055 346.27 213.497 353.224C218.94 360.18 224.987 361.086 231.035 360.18C237.083 359.272 240.812 357.155 240.812 357.155C240.812 357.155 247.061 356.35 249.783 354.938C252.504 353.528 253.108 351.411 253.108 351.411C253.108 351.411 254.52 351.208 255.427 350.403C256.333 349.596 256.536 349.194 256.536 349.194C256.536 349.194 259.66 350.2 261.272 347.076C262.885 343.952 259.459 340.022 256.333 338.912C253.209 337.804 244.239 337.098 241.719 332.462C239.199 327.824 241.517 321.172 247.061 319.56C252.604 317.947 256.939 318.754 258.047 318.955C259.156 319.156 259.861 319.459 259.861 319.459C259.861 319.459 256.536 328.632 262.885 330.143C269.235 331.655 270.344 321.475 270.445 317.747C270.545 314.016 271.049 309.783 264.901 307.767C258.753 305.751 250.891 310.086 239.603 308.976C228.313 307.868 206.744 306.558 193.237 301.416C179.731 296.278 168.14 287.911 168.14 287.911C168.14 287.911 168.645 284.484 174.188 279.042C179.731 273.599 185.577 270.675 185.577 270.675C185.577 270.675 184.345 255.954 178.824 249.408C169.048 237.818 152.619 236.306 152.619 236.306Z" fill="#FFB894"/>
<path d="M396.132 385.276C396.132 385.276 335.658 364.715 329.912 360.18C324.167 355.643 324.47 334.78 319.934 329.338C315.398 323.894 308.746 326.615 305.42 329.639C302.094 332.663 299.867 337.955 303.494 339.164C307.123 340.374 312.072 339.014 312.072 339.014C312.072 339.014 314.188 346.27 310.559 352.015C306.932 357.76 303.604 358.971 298.162 358.063C292.719 357.155 282.439 352.318 279.112 353.224C275.787 354.132 277.654 356.911 279.516 359.071C280.251 359.923 282.943 361.994 282.943 361.994C282.943 361.994 280.624 362.748 281.078 365.018C281.531 367.286 284.404 369.25 284.404 369.25C284.404 369.25 281.986 368.192 282.892 371.066C283.799 373.938 285.766 375.147 285.766 375.147C285.766 375.147 283.044 377.263 286.37 380.892C289.696 384.522 298.768 387.394 304.362 387.243C309.955 387.091 318.119 384.067 319.782 384.974C321.446 385.882 354.254 410.374 366.499 418.084C378.746 425.795 390.539 431.239 399.459 422.167C408.379 413.095 408.379 395.558 408.076 392.08C407.774 388.603 396.132 385.276 396.132 385.276Z" fill="#FFB894"/>
<path d="M348.66 269.164C348.66 269.164 367.584 290.573 376.578 304.643C388.372 323.088 395.528 337.804 397.04 341.129C398.552 344.456 399.46 347.177 399.46 347.177C399.46 347.177 387.968 348.992 375.269 352.923C362.569 356.853 351.985 362.599 351.985 362.599C351.985 362.599 345.333 349.899 338.681 340.223C332.028 330.547 329.005 326.919 329.005 326.919C329.005 326.919 329.005 304.844 335.657 293.657C342.309 282.469 348.66 269.164 348.66 269.164Z" fill="#F64F49"/>
<path d="M234.361 205.06C234.361 205.06 225.794 199.516 213.094 202.238C200.394 204.959 177.11 218.364 166.527 225.016C155.945 231.67 140.926 243.16 140.926 243.16C140.926 243.16 149.686 245.963 160.479 255.054C171.97 264.728 179.026 280.856 179.026 280.856L208.054 265.132C208.054 265.132 236.477 214.131 234.361 205.06Z" fill="#F64F49"/>
<path d="M256.877 222.488C252.651 232.753 252.863 244.405 257.417 254.52C261.917 264.519 270.742 271.98 281.077 275.443C286.626 277.303 293.222 278.344 298.874 276.419C299.278 276.28 299.202 275.707 298.773 275.679C293.63 275.345 288.598 275.293 283.585 273.936C278.686 272.611 274.038 270.345 270.005 267.261C261.586 260.825 256.401 250.877 255.519 240.353C255.014 234.321 255.73 228.429 257.978 222.792C258.251 222.107 257.151 221.82 256.877 222.488Z" fill="#FB746F"/>
<path d="M348.57 355.418C360.119 349.408 372.966 346.233 385.542 343.189C386.006 343.077 385.886 342.398 385.434 342.381C382.25 342.256 379.131 343.26 376.083 344.078C372.774 344.968 369.47 345.87 366.193 346.87C359.875 348.796 353.703 351.088 347.947 354.353C347.255 354.746 347.869 355.782 348.57 355.418Z" fill="#FB746F"/>
<path d="M184.074 277.576C184.358 274.939 182.738 271.855 181.736 269.483C180.527 266.619 179.118 263.845 177.499 261.191C175.97 258.681 174.262 256.283 172.399 254.009C170.535 251.732 168.486 249.372 165.915 247.873C165.618 247.699 165.198 248.063 165.415 248.373C166.996 250.612 169.004 252.539 170.766 254.633C172.719 256.957 174.49 259.433 176.072 262.024C177.567 264.471 178.899 267.02 180.035 269.653C180.638 271.051 181.186 272.472 181.68 273.911C182.128 275.217 182.47 276.663 183.307 277.784C183.558 278.119 184.028 277.995 184.074 277.576Z" fill="#FB746F"/>
<path d="M259.572 315.258C259.232 316.713 258.832 317.837 258.585 319.072C259.314 319.244 259.77 319.422 259.832 319.449C260.104 318.137 260.302 316.812 260.41 315.476C260.478 314.642 259.762 314.441 259.572 315.258Z" fill="#D3A58F"/>
<path d="M339.832 303.45C337.365 311.015 335.316 318.706 333.733 326.504C332.994 330.142 332.353 333.811 331.926 337.496C331.748 339.048 331.593 340.602 331.469 342.158C332.17 339.006 332.872 335.922 333.568 332.959C334.297 329.891 338.854 311.192 341.021 303.778C341.245 303.011 340.077 302.699 339.832 303.45Z" fill="#CE9B83"/>
<path d="M386.209 382.944C389.209 384.243 392.159 385.999 395.257 387.012C391.193 383.26 381.712 378.366 378.26 376.979C371.395 374.222 364.46 371.58 357.447 369.218C357.679 370.019 357.897 370.848 358.105 371.696C360.287 372.567 362.465 373.442 364.656 374.278C371.887 377.038 379.105 379.87 386.209 382.944Z" fill="#E1C2B3"/>
<path d="M199.011 272.605C202.981 268.929 207.453 265.746 212.003 262.833C212.645 262.424 212.089 261.516 211.415 261.828C206.997 263.882 203.045 266.624 199.373 269.782C198.909 271.061 198.457 272.325 198.017 273.574C198.351 273.253 198.673 272.918 199.011 272.605Z" fill="#CE9B83"/>
<path d="M166.741 286.982C167.213 287.275 167.68 287.577 168.146 287.877C168.174 287.727 168.338 286.989 168.957 285.771C168.592 285.537 168.228 285.299 167.862 285.065C166.436 284.147 164.996 283.251 163.542 282.377C162.301 281.63 160.574 280.429 159.068 280.657C158.653 280.719 158.592 281.21 158.718 281.511C159.002 282.178 159.713 282.647 160.29 283.054C160.96 283.527 161.676 283.95 162.382 284.361C163.849 285.213 165.301 286.087 166.741 286.982Z" fill="#E1C2B3"/>
<path d="M255.771 350.075C256.363 349.499 256.535 349.193 256.535 349.193C256.535 349.193 256.555 349.199 256.584 349.208C255.816 348.765 254.988 347.951 254.318 347.504C252.979 346.615 251.831 346.004 250.255 345.667C246.879 344.947 243.37 345.156 240.044 344.099C232.816 341.801 229.186 334.245 231.175 327.052C231.351 326.415 230.66 326.595 230.43 327.183C227.586 334.427 231.06 342.4 238.214 345.401C242.04 347.007 246.171 346.056 250.115 347.071C252.276 347.628 253.87 349.068 255.771 350.075Z" fill="#D3A58F"/>
<path d="M238.317 357.08C234.821 356.792 231.055 356.101 227.737 354.9C219.239 351.827 217.48 342.224 218.489 334.251C218.62 333.224 216.851 332.979 216.673 334.004C215.239 342.309 217.319 352.455 225.741 356.316C229.193 357.897 233.641 358.193 237.385 358.592C237.405 358.595 237.424 358.599 237.444 358.6C239.6 357.841 240.812 357.156 240.812 357.156C240.812 357.156 240.889 357.145 241.007 357.129C240.124 357.147 239.243 357.157 238.317 357.08Z" fill="#D3A58F"/>
<path d="M210.702 325.498C209.641 328.018 208.914 330.609 208.414 333.267H210.163C210.586 330.753 211.166 328.249 211.891 325.826C212.126 325.042 211.001 324.793 210.702 325.498Z" fill="#E1C2B3"/>
<path d="M244.395 352.426C240.913 352.393 237.316 351.683 234.2 350.082C227.827 346.805 223.403 339.35 223.4 332.286C223.399 331.37 222.339 331.158 222.3 332.066C221.972 339.971 225.885 347.87 233.019 351.685C236.348 353.466 240.183 354.119 243.931 354.147C245.839 354.162 247.933 353.787 249.808 353.426C250.575 353.278 251.484 353.101 252.339 352.807C252.92 352.025 253.108 351.41 253.108 351.41C253.108 351.41 253.192 351.398 253.324 351.37C252.089 351.434 250.768 351.733 249.628 351.963C247.912 352.311 246.145 352.445 244.395 352.426Z" fill="#D3A58F"/>
<path d="M313.192 366.96C311.704 366.565 309.942 367.193 308.435 367.336C306.794 367.492 305.147 367.537 303.499 367.487C299.906 367.376 296.164 367.273 292.72 366.227C289.068 365.116 285.654 363.659 282.574 361.707C282.794 361.877 282.943 361.993 282.943 361.993C282.943 361.993 282.594 362.112 282.194 362.383C284.758 364.48 287.65 366.131 291.108 367.235C294.735 368.393 299.583 369.211 303.226 369.348C305.052 369.416 306.891 369.339 308.708 369.136C310.274 368.961 312.187 368.932 313.439 367.895C313.77 367.62 313.571 367.06 313.192 366.96Z" fill="#D3A58F"/>
<path d="M299.391 377.11C300.997 377.443 302.669 377.594 304.305 377.671C305.631 377.734 307.374 377.979 308.573 377.304C308.859 377.144 308.882 376.671 308.573 376.516C307.482 375.971 306.074 376.091 304.878 375.956C295.202 374.86 288.903 372.535 283.629 368.639C284.071 369.016 284.405 369.25 284.405 369.25C284.405 369.25 283.465 368.84 282.975 369.227C285.131 371.031 287.667 372.512 290.145 373.756C293.047 375.212 296.205 376.447 299.391 377.11Z" fill="#D3A58F"/>
<path d="M307.761 381.801C306.71 381.379 305.256 381.617 304.138 381.631C302.729 381.648 301.313 381.552 299.92 381.339C297.186 380.923 294.508 380.088 291.997 378.933C290.012 378.021 287.684 376.779 285.717 375.188C285.596 375.295 285.26 375.627 285.008 376.161C286.846 377.72 288.956 379.051 290.868 379.985C293.621 381.331 296.573 382.269 299.597 382.771C301.142 383.027 302.708 383.177 304.277 383.181C305.513 383.183 307.108 383.137 308.106 382.341C308.413 382.097 308.048 381.917 307.761 381.801Z" fill="#D3A58F"/>
<path d="M312.072 339.013C312.072 339.013 312.08 339.041 312.086 339.06C312.103 338.355 312.099 337.685 312.022 337.149C311.908 336.356 312.015 335.461 311.85 334.677C311.699 333.967 311.584 333.248 311.298 332.579C311.242 332.448 311.006 332.479 310.986 332.619C310.879 333.319 310.931 334.024 310.939 334.731C310.95 335.557 310.979 336.375 311.036 337.2C311.07 337.707 311.034 338.644 310.975 339.176C311.711 339.176 312.072 339.013 312.072 339.013Z" fill="#D3A58F"/>
<path d="M270.121 348.463C267.483 355.52 264.779 362.567 260.151 368.603C255.708 374.399 249.58 379.033 242.457 380.915C228.792 384.523 216.377 375.427 206.036 367.707C200.872 363.852 195.767 359.828 190.124 356.684C184.901 353.773 179.428 350.463 173.559 349.087C167.721 347.719 161.163 349.131 158.584 355.101C155.953 361.195 158.583 367.535 162.501 372.368C167.107 378.048 173.007 382.864 179.093 386.963C179.021 385.791 178.981 384.621 178.975 383.455C174.839 380.556 170.955 377.289 167.44 373.673C162.984 369.091 158.051 362.263 161.513 355.679C164.775 349.48 172.808 351.483 177.912 353.744C183.248 356.108 188.577 359.06 193.433 362.295C198.779 365.856 203.78 369.899 209.007 373.627C219.285 380.957 231.449 387.481 244.371 383.503C259.469 378.856 269.079 363.856 272.292 349.06C272.603 347.629 270.624 347.116 270.121 348.463Z" fill="#33444A"/>
<path d="M356.219 540.095H153.627V523.161H356.219V540.095Z" fill="#192D34"/>
<path d="M140.005 396.767H372.062C377.62 396.767 381.774 401.869 380.65 407.31L356.218 525.579H153.626L131.388 407.154C130.373 401.757 134.513 396.767 140.005 396.767Z" fill="#26383F"/>
<path d="M135.783 400.497H376.285C377.473 400.497 378.593 400.723 379.623 401.117C378.115 398.546 375.338 396.767 372.062 396.767H140.005C136.734 396.767 133.953 398.545 132.445 401.118C133.474 400.725 134.595 400.497 135.783 400.497Z" fill="#4C5A5F"/>
<path d="M274.177 464.148C274.177 472.832 266.054 479.87 256.034 479.87C246.014 479.87 237.891 472.832 237.891 464.148C237.891 455.462 246.014 448.424 256.034 448.424C266.054 448.424 274.177 455.462 274.177 464.148Z" fill="#4C5A5F"/>
<path d="M81.2495 186.54C70.1389 197.651 52.1229 197.651 41.0122 186.54C29.9002 175.429 29.9002 157.413 41.0122 146.303C52.1229 135.191 70.1389 135.191 81.2495 146.303C92.3602 157.413 92.3602 175.429 81.2495 186.54Z" fill="#FFFFAB"/>
<path d="M34.2763 193.276L24.2469 203.305" stroke="#FFFFAB" stroke-width="2.26133" stroke-miterlimit="10" stroke-linecap="round"/>
<path d="M98.0145 129.537L87.6172 139.934" stroke="#FFFFAB" stroke-width="2.26133" stroke-miterlimit="10" stroke-linecap="round"/>
<path d="M87.9852 193.276L98.0146 203.305" stroke="#FFFFAB" stroke-width="2.26133" stroke-miterlimit="10" stroke-linecap="round"/>
<path d="M24.2463 129.537L34.6437 139.934" stroke="#FFFFAB" stroke-width="2.26133" stroke-miterlimit="10" stroke-linecap="round"/>
<path d="M61.1304 204.399V225.821" stroke="#FFFFAB" stroke-width="2.26133" stroke-miterlimit="10" stroke-linecap="round"/>
<path d="M61.1304 107.021V128.964" stroke="#FFFFAB" stroke-width="2.26133" stroke-miterlimit="10" stroke-linecap="round"/>
<path d="M23.1525 166.421H1.7312" stroke="#FFFFAB" stroke-width="2.26133" stroke-miterlimit="10" stroke-linecap="round"/>
<path d="M120.531 166.421H98.5881" stroke="#FFFFAB" stroke-width="2.26133" stroke-miterlimit="10" stroke-linecap="round"/>
<path d="M518.433 192.065C501.185 180.567 496.524 157.266 508.021 140.019C512.416 133.426 518.538 128.679 525.386 125.965C511.784 125.453 498.242 131.809 490.138 143.965C477.738 162.569 482.766 187.703 501.369 200.105C517.105 210.594 537.513 208.611 550.936 196.491C540.374 199.945 528.396 198.706 518.433 192.065Z" fill="#FFFFAB"/>
<path d="M79.2775 113.773C79.8361 112.813 80.4041 111.858 80.9788 110.907" stroke="#FFFFAB" stroke-width="2" stroke-miterlimit="10" stroke-linecap="round"/>
<path d="M86.0177 103.01C126.688 42.4408 201.792 1.79681 287.715 1.79681C376.664 1.79681 454.019 45.3528 493.582 109.482" stroke="#FFFFAB" stroke-width="2" stroke-miterlimit="10" stroke-linecap="round" stroke-dasharray="6.69 9.37"/>
<path d="M495.998 113.506C496.56 114.464 497.112 115.428 497.656 116.396" stroke="#FFFFAB" stroke-width="2" stroke-miterlimit="10" stroke-linecap="round"/>
</svg>
