<svg width="614" height="476" viewBox="0 0 614 476" fill="none" xmlns="http://www.w3.org/2000/svg">
<path d="M195.432 293.15C194.806 293.784 194.567 294.423 194.597 295.041C194.622 296.005 196.449 297.08 197.634 296.113C199.196 294.799 196.871 291.77 195.432 293.15Z" fill="#FAF89D"/>
<path d="M197.471 355.228C199.934 358.782 207.683 358.119 208.335 353.895C209.357 347.354 191.417 346.559 197.471 355.228Z" fill="#FAF89D"/>
<path d="M231.735 447.596C231.633 447.505 231.633 447.505 231.633 447.505C231.633 447.505 231.374 447.259 231.262 447.378L231.135 447.53L231.084 447.697C231.262 447.888 231.582 447.888 231.977 447.853L232.058 447.888C231.977 447.823 231.89 447.772 231.814 447.662L231.735 447.596Z" fill="#FAF89D"/>
<path d="M224.408 310.827C225.238 310.878 225.919 310.61 226.892 311.076C224.011 309.718 221.851 308.086 219.986 308.404C221.529 309.448 222.655 310.27 224.408 310.827Z" fill="#FAF89D"/>
<path d="M247.945 401.958C245.63 402.945 253.517 406.016 252.158 403.812C251.131 402.113 249.307 401.365 247.945 401.958Z" fill="#FAF89D"/>
<path d="M281.71 307.883C282.392 310.674 287.921 310.483 288.045 309.267C288.488 305.517 281.217 305.814 281.71 307.883Z" fill="#FAF89D"/>
<path d="M226.892 311.076C230.649 313.737 235.59 317.592 236.894 314.583C238.303 311.926 231.135 311.837 226.892 311.076Z" fill="#FAF89D"/>
<path d="M283.179 292.281C284.127 292.696 285.008 292.924 285.735 292.327C284.722 291.571 283.777 290.918 283.179 292.281Z" fill="#FAF89D"/>
<path d="M282.52 327.272C284.461 327.615 286.636 329.151 288.285 327.981C286.219 327.064 284.303 326.791 282.52 327.272Z" fill="#FAF89D"/>
<path d="M275.391 324.483C275.174 323.303 273.574 323.176 272.768 323.767C273.676 324.063 274.882 326.112 275.391 324.483Z" fill="#FAF89D"/>
<path d="M276.714 330.9C277.281 331.329 277.885 331.727 278.493 332.136C279.983 330.551 277.469 328.836 276.714 330.9Z" fill="#FAF89D"/>
<path d="M258.911 354.099C260.382 353.796 262.417 352.833 261.847 350.446C260.168 343.538 250.882 355.806 258.911 354.099Z" fill="#FAF89D"/>
<path d="M243.473 379.452C243.956 380.614 244.778 382.478 246.419 381.139C247.701 380.107 242.908 378.074 243.473 379.452Z" fill="#FAF89D"/>
<path d="M159.99 322.082C159.362 320.451 157.082 317.05 155.251 319.518C154.772 320.136 154.487 320.375 154.225 320.589V322.613C155.612 324.221 160.766 324.105 159.99 322.082" fill="#FAF89D"/>
<path d="M250.505 288.668C250.708 287.654 250.596 286.615 250.329 285.615C249.776 282.474 244.646 283.519 244.252 286.279C243.443 290.371 249.437 292.726 250.505 288.668" fill="#FAF89D"/>
<path d="M223.955 296.978C224.642 296.816 225.196 295.837 225.143 295.092C224.988 293.319 223.39 293.354 222.159 293.711C218.704 294.576 215.092 293.087 215.588 295.909C216.186 299.341 220.485 297.891 223.955 296.978" fill="#FAF89D"/>
<path d="M241.703 452.981L249.905 437.445C245.579 441.348 242.621 446.785 241.703 452.981Z" fill="#FAF89D"/>
<path d="M164.88 114.259C171.034 104.966 178.966 78.6768 204.117 74.2524C229.262 69.8324 282.977 47.1397 313.878 45.8437C356.859 44.0396 452.483 49.7676 513.362 126.018C574.232 202.265 571.311 244.753 566.299 293.873C561.277 342.994 559.166 341.799 562.071 362.731C564.98 383.663 564.471 396.764 560.351 403.11C549.091 420.454 537.785 418.222 525.136 418.851C512.482 419.481 476.153 424.46 454.368 436.178C424.572 452.211 310.718 453.579 241.275 399.81C165.462 341.106 156.848 299.436 149.679 262.383C144.881 237.57 150.163 204.529 147.429 194.595C144.697 184.654 135.59 155.447 142.489 140.368C149.389 125.29 158.728 123.551 164.88 114.259" fill="#F8D41F"/>
<path d="M212.568 79.4192C213.326 73.676 287.407 50.6185 318.31 49.3225C361.289 47.5185 447.14 53.6698 504.4 121.973C567.078 196.742 566.177 237.023 561.165 286.144C556.144 335.265 556.907 337.817 559.813 358.749C561.266 369.217 549.157 326.799 550.292 283.852C551.375 242.992 538.293 179.307 487.453 135.327C439.518 93.8591 404.519 80.4808 362.936 70.2405C296.339 53.8402 212.568 79.4192 212.568 79.4192Z" fill="#FAE34A"/>
<path d="M163.666 227C173.412 263.1 255.252 336.731 324.618 353.494C448.801 383.504 547.172 378.25 554.648 365.739C557.314 361.273 561.297 360.309 562.071 362.731C564.788 371.23 563.374 399.49 560.27 404.275C549.004 421.619 537.698 419.387 525.049 420.015C512.401 420.647 476.067 425.625 454.284 437.343C424.489 453.376 310.631 454.745 241.194 400.975C165.379 342.271 156.766 300.603 149.598 263.549C144.795 238.736 150.076 205.694 147.346 195.759C144.611 185.82 135.509 156.612 142.408 141.533C143.268 139.647 147.936 131.52 147.936 132.415C147.936 144.531 155.136 195.413 163.666 227" fill="#F5D017"/>
<path d="M29.3937 47.4045C29.3937 47.4045 46.7232 51.5293 69.3758 59.1992C103.102 70.6237 148.623 89.8961 166.307 115.088C171.869 123.014 173.257 106.244 173.257 106.244C173.257 106.244 88.8403 39.6749 33.499 34.7187C20.3062 33.5366 20.176 45.0621 29.3937 47.4045" fill="#46722B"/>
<path d="M72.9122 82.5128C72.9122 82.5128 54.7752 138.539 60.4098 180.653C66.0455 222.768 41.4695 293.932 38.1751 297.392C35.9521 299.727 116.459 252.812 118.384 190.956C120.31 129.1 87.0449 91.178 72.9122 82.5128" fill="#46722B"/>
<path d="M75.7485 84.8747L70.548 84.5501C70.5589 84.3613 71.64 65.7434 65.7904 57.7467L69.9988 54.6706C76.9577 64.1879 75.7995 84.0345 75.7485 84.8747Z" fill="#46722B"/>
<path d="M67.2873 81.8615C67.2873 81.8615 15.9785 89.4912 9.55039 150.171C4.09593 201.666 16.6656 215.364 25.0302 234.014C30.9427 247.193 45.1363 283.733 38.9155 295.733C32.6925 307.73 67.5674 252.952 60.4098 180.653C56.5944 142.098 70.6023 92.1126 72.9122 82.5127C73.2324 81.195 67.2873 81.8615 67.2873 81.8615" fill="#70B42E"/>
<path d="M83.5617 55.5205L79.0885 52.847C83.5487 45.3855 97.1799 40.5324 97.7596 40.3294L99.4855 45.2455C96.0402 46.459 86.4599 50.6707 83.5617 55.5205" fill="#46722B"/>
<path d="M98.3804 47.4392C98.3804 47.4392 117.69 79.0903 159.42 66.4229C194.841 55.6736 200.357 43.589 210.298 32.8853C217.33 25.3218 237.434 5.80513 247.065 6.55953C256.692 7.30958 210.925 -0.387432 165.322 24.4534C141.009 37.7037 104.202 42.4026 97.2407 43.5521C96.2866 43.7117 98.3804 47.4392 98.3804 47.4392" fill="#70B42E"/>
<path d="M483.693 66.7974C483.693 67.4074 483.689 68.0348 483.683 68.6622C483.83 68.7881 484.024 68.8836 484.294 68.8934C485.581 68.9716 486.645 66.1396 485.607 65.5611C484.924 65.1681 484.121 65.916 483.693 66.7974" fill="#FBF891"/>
<path d="M595.566 67.1849C595.989 68.7469 599.067 67.2858 598.797 65.9626C596.854 65.5056 596.854 68.1108 595.566 67.1849Z" fill="#FBF891"/>
<path d="M581.843 60.0414C580.753 60.493 579.711 59.9318 578.607 60.8989C579.894 61.4775 582.062 60.5353 581.843 60.0414Z" fill="#FBF891"/>
<path d="M584.815 71.2358C583.924 72.5807 586.794 75.0198 587.517 74.7918C591.124 73.5088 586.357 68.9238 584.815 71.2358Z" fill="#FBF891"/>
<path d="M594.019 441.574C594.288 441.467 594.726 441.539 594.726 441.177C593.897 441.442 593.062 441.731 592.976 442.704C594.477 442.505 595.76 442.108 594.019 441.574Z" fill="#FBF891"/>
<path d="M596.823 102.881C593.449 101.279 594.666 103.833 596.823 102.881Z" fill="#FBF891"/>
<path d="M600.603 440.205C600.38 441.539 599.749 443.711 601.157 444.928C601.34 443.213 601.005 441.442 600.603 440.205Z" fill="#FBF891"/>
<path d="M579.64 90.4149C581.05 89.9796 578.912 87.2638 578.454 88.2679C577.96 89.3805 578.806 90.6559 579.64 90.4149Z" fill="#FBF891"/>
<path d="M609.456 455.557C608.011 455.26 608.036 456.416 608.047 456.71C608.082 457.225 610.662 455.811 609.456 455.557Z" fill="#FBF891"/>
<path d="M576.912 25.5975C574.043 25.7744 576.709 28.2384 576.912 25.5975Z" fill="#FBF891"/>
<path d="M575.722 179.493C576.124 179.095 576.816 180.007 576.858 180.17C576.877 180.342 579.03 180.053 578.979 178.994C578.138 179.849 576.593 178.612 575.722 179.493Z" fill="#FBF891"/>
<path d="M578.648 93.3587C579.37 97.5627 580.708 93.6507 578.648 93.3587Z" fill="#FBF891"/>
<path d="M608.871 63.0275C608.983 63.3195 610.465 63.821 610.688 62.9451C610.872 62.2525 608.368 61.8737 608.871 63.0275Z" fill="#FBF891"/>
<path d="M612.382 43.2417C611.969 42.8531 610.993 43.6206 610.952 43.6433C608.688 44.706 613.328 44.1133 612.382 43.2417Z" fill="#FBF891"/>
<path d="M614 26.0219C612.56 26.2314 612.947 24.8431 612.5 24.6151C610.032 23.3918 611.018 26.9348 614 26.0219Z" fill="#FBF891"/>
<path d="M604.948 106.214C605.482 105.635 603.376 104.877 603.081 105.202C602.445 105.889 604.541 106.646 604.948 106.214Z" fill="#FBF891"/>
<path d="M604.079 32.5901C606.357 31.496 602.053 31.3624 603.356 32.9972C603.58 33.2349 604.098 32.5901 604.079 32.5901Z" fill="#FBF891"/>
<path d="M601.55 14.1024C603.564 13.7051 604.124 12.3081 604.766 11.7957C603.834 12.7184 601.295 12.1062 601.55 14.1024Z" fill="#FBF891"/>
<path d="M602.745 35.918C604.424 32.6562 601.651 35.6695 602.745 35.918Z" fill="#FBF891"/>
<path d="M600.211 96.5467C598.649 96.5217 596.574 95.0412 595.865 96.3492C597.835 96.0843 599.132 99.1627 600.211 96.5467Z" fill="#FBF891"/>
<path d="M598.975 101.689C599.973 101.646 601.168 103.309 601.891 102.325C600.791 102.465 599.901 100.471 598.975 101.689Z" fill="#FBF891"/>
<path d="M604.486 81.7811C604.098 82.2598 601.662 82.6213 602.734 83.3051C603.132 82.8275 605.558 82.4563 604.486 81.7811Z" fill="#FBF891"/>
<path d="M604.795 54.0931C605.651 54.7368 609.854 54.5892 609.573 55.0158C610.494 53.6763 607.813 51.3252 606.906 52.9664C607.208 53.0814 607.217 53.4853 606.607 54.3851C606.607 53.7143 606.734 53.2714 606.906 52.9664C606.241 52.6831 604.333 53.7328 604.795 54.0931" fill="#FBF891"/>
<path d="M513.902 236.513C512.589 236.615 513.26 239.122 511.052 238.074C512.522 240.751 515.555 236.39 513.902 236.513Z" fill="#FBF891"/>
<path d="M512.884 103.894C512.533 105.416 515.515 105.301 515.046 103.803L512.884 103.894Z" fill="#FBF891"/>
<path d="M506.992 284.636C506.575 284.86 506.198 285.17 505.944 285.639C506.336 285.602 506.676 285.551 506.992 285.511C511.246 284.86 508.762 283.699 506.992 284.636" fill="#FBF891"/>
<path d="M520.602 259.944C521.259 259.231 519.468 258.732 519.116 258.915C517.423 259.683 520.18 260.391 520.602 259.944Z" fill="#FBF891"/>
<path d="M514.939 14.1393C513.637 14.3662 514.019 16.6153 514.303 16.726C515.947 17.3892 517.208 13.7594 514.939 14.1393Z" fill="#FBF891"/>
<path d="M516.17 296.202C518.048 295.973 521.321 294.894 521.137 293.098C519.458 294.099 517.626 294.981 516.17 296.202Z" fill="#FBF891"/>
<path d="M511.775 266.853C513.688 264.049 509.754 264.43 511.775 266.853Z" fill="#FBF891"/>
<path d="M507.989 70.8983C508.533 73.4079 505.899 73.7411 506.336 75.3335C506.997 77.7454 507.069 74.8277 507.781 75.2803C508.386 75.6689 507.414 76.5611 508.595 76.7012C512.751 77.3079 508.096 71.4779 507.989 70.8983" fill="#FBF891"/>
<path d="M510.096 289.5C509.322 289.587 509.058 292.991 510.193 291.688C509.256 291.393 510.712 289.947 510.096 289.5Z" fill="#FBF891"/>
<path d="M513.226 64.8815C513.226 65.4698 510.579 64.7426 510.36 66.0864C511.611 65.6153 514.019 66.2818 513.226 64.8815Z" fill="#FBF891"/>
<path d="M501.599 74.4217C501.608 74.5205 502.921 74.2947 503.033 74.3761C502.758 74.1894 505.557 78.8493 506.452 78.2567C506.229 76.1606 504.861 75.4355 505.557 73.9159C506.727 71.3357 500.993 71.2424 501.599 74.4217Z" fill="#FBF891"/>
<path d="M506.772 66.932C505.034 67.0991 504.392 67.1849 503.497 67.4139C503.665 68.9531 506.32 67.4454 506.772 66.932Z" fill="#FBF891"/>
<path d="M506.31 112.873C505.13 114.441 503.726 112.147 503.033 112.634C502.571 112.981 503.781 115.387 502.066 115.962C504.632 116.43 504.947 114.12 506.31 112.873" fill="#FBF891"/>
<path d="M503.476 47.3958C502.565 48.4053 504.632 48.9849 504.947 48.0579C505.085 47.6802 504.025 46.751 503.476 47.3958Z" fill="#FBF891"/>
<path d="M526.464 289.973C525.381 289.769 524.917 288.858 523.879 288.61C522.613 289.871 526.027 290.651 526.464 289.973Z" fill="#FBF891"/>
<path d="M485.393 69.2179C484.625 69.7748 484.182 69.1387 483.683 68.7143C483.678 69.9897 483.668 71.2673 483.663 72.5688C485.846 73.2678 487.174 67.9262 485.393 69.2179Z" fill="#FBF891"/>
<path d="M487.215 227.156C487.23 227.385 487.239 227.618 487.26 227.852C488.843 227.924 489.967 227.782 491.717 226.428C490.388 225.746 488.757 226.494 487.215 227.156" fill="#FBF891"/>
<path d="M487.357 25.4141C483.383 26.0219 485.408 30.1033 487.357 25.4141Z" fill="#FBF891"/>
<path d="M491.253 137.511C490.567 138.233 492.364 138.574 492.745 138.176C493.167 137.714 492.063 136.62 491.253 137.511Z" fill="#FBF891"/>
<path d="M485.933 54.6185C484.045 59.0819 487.031 57.4679 485.933 54.6185Z" fill="#FBF891"/>
<path d="M487.464 37.4258C488.843 37.2478 490.119 33.2891 490.156 32.0929C489.987 32.2763 488.879 30.6926 488.67 30.8229C486.584 31.9833 489.011 35.562 487.464 37.4258" fill="#FBF891"/>
<path d="M490.914 224.641C490.385 226.046 493.014 224.901 492.745 224.932C492.389 223.452 490.923 224.596 490.914 224.641Z" fill="#FBF891"/>
<path d="M528.891 201.745C529.125 201.041 529.029 200.623 528.83 200.481C528.83 200.695 528.855 200.934 528.855 201.148C528.855 200.934 528.83 200.714 528.83 200.496C528.357 200.186 527.446 201.016 528.616 202.423C528.743 202.152 528.82 201.949 528.891 201.745" fill="#FBF891"/>
<path d="M512.461 160.03C512.507 159.75 513.113 161.592 513.947 160.698C514.811 159.772 512.614 159.176 512.461 160.03Z" fill="#FBF891"/>
<path d="M523.416 324.354C522.282 324.552 521.977 325.717 521.248 324.43C520.638 326.852 523.701 325.702 523.416 324.354Z" fill="#FBF891"/>
<path d="M523.936 290.427C522.088 292.462 527.893 292.339 525.756 290.365L523.936 290.427Z" fill="#FBF891"/>
<path d="M528.571 105.475C529.125 108.798 529.883 102.633 528.794 101.819C527.863 103.284 528.478 104.877 528.571 105.475Z" fill="#FBF891"/>
<path d="M527.863 86.555C529.583 84.3635 525.909 83.8945 527.863 86.555Z" fill="#FBF891"/>
<path d="M486.329 75.0198C485.948 73.6142 485.825 74.1753 485.581 74.3121C485.088 74.5455 484.218 75.0013 483.652 75.5256C483.642 76.0065 483.642 76.4852 483.638 76.9737C484.517 76.7175 485.734 72.8695 486.329 75.0198" fill="#FBF891"/>
<path d="M519.574 12.1464C520.496 12.3624 521.488 12.4265 522.495 12.0477C522.093 11.6743 519.871 11.3801 519.574 12.1464Z" fill="#FBF891"/>
<path d="M557.751 213.698C558.061 212.746 556.551 211.972 555.898 212.681C555.233 213.397 557.552 214.369 557.751 213.698Z" fill="#FBF891"/>
<path d="M554.855 185.023C555.955 182.622 551.502 186.25 554.474 185.023C554.612 184.983 554.586 185.583 554.855 185.023Z" fill="#FBF891"/>
<path d="M557.074 234.152C555.675 234.63 554.423 233.715 553.853 235.368C554.652 235.861 556.805 235.26 557.074 234.152Z" fill="#FBF891"/>
<path d="M548.144 142.269C547.244 146.491 550.475 143.515 548.144 142.269Z" fill="#FBF891"/>
<path d="M566.477 367.181C566.288 366.458 565.592 366.774 565.012 367.232C563.45 368.473 566.767 368.284 566.477 367.181Z" fill="#FBF891"/>
<path d="M561.322 413.299C557.98 412.262 558.591 416.108 557.104 417.472C559.537 416.804 560.534 414.459 561.322 413.299Z" fill="#FBF891"/>
<path d="M511.978 118.481C511.857 118.547 511.088 119.067 511.286 119.245C512.42 120.313 513.957 117.591 511.978 118.481Z" fill="#FBF891"/>
<path d="M549.432 99.9519C548.664 99.827 547.208 100.206 547.305 101.112C547.513 103.01 551.314 100.206 549.432 99.9519Z" fill="#FBF891"/>
<path d="M535.964 156.576C535.517 156.413 534.986 156.764 534.9 156.993C533.985 158.87 536.834 156.896 535.964 156.576Z" fill="#FBF891"/>
<path d="M535.261 185.772C539.169 187.898 537.643 184.112 535.261 185.772Z" fill="#FBF891"/>
<path d="M534.066 106.36C534.015 106.392 533.582 107.318 533.74 107.46C534.539 108.198 537.47 103.951 534.066 106.36Z" fill="#FBF891"/>
<path d="M534.245 25.071C532.535 25.6735 530.519 27.5871 531.144 29.199C533.323 27.7152 532.824 26.1489 534.245 25.071Z" fill="#FBF891"/>
<path d="M529.929 313.903C529.227 314.036 527.741 314.589 528.51 315.419C529.741 316.685 532.071 313.486 529.929 313.903Z" fill="#FBF891"/>
<path d="M498.82 68.7099C497.681 67.6201 497.13 68.6383 496.647 69.1583C495.855 69.9973 499.538 69.3634 498.82 68.7099Z" fill="#FBF891"/>
<path d="M502.382 191.384C502.031 191.069 501.344 191.776 501.303 191.795C497.436 193.881 504.228 193.104 502.382 191.384Z" fill="#FBF891"/>
<path d="M533.74 261.262C532.947 263.053 536.967 263.297 536.299 261.546C535.932 260.564 533.948 260.809 533.74 261.262Z" fill="#FBF891"/>
<path d="M546.491 31.1703C546.491 30.9467 544.984 29.2848 544.633 30.5016C544.501 30.9467 546.415 31.9833 546.491 31.1703Z" fill="#FBF891"/>
<path d="M546.863 31.5176C550.912 28.7052 547.814 27.0227 546.863 31.5176Z" fill="#FBF891"/>
<path d="M531.201 383.579C531.314 383.498 531.277 383.338 531.144 383.477L531.201 383.579Z" fill="#FBF891"/>
<path d="M543.87 317.368C543.712 318.253 541.525 317.301 541.738 318.548C542.181 319.246 544.938 318.025 543.87 317.368Z" fill="#FBF891"/>
<path d="M542.746 191.674C542.812 191.908 541.22 191.327 541.275 191.369C540.848 191.007 540.498 191.327 540.568 191.759C541.159 195.479 543.24 193.358 542.746 191.674Z" fill="#FBF891"/>
<path d="M548.689 99.2463C549.467 95.3517 546.704 97.9416 548.689 99.2463Z" fill="#FBF891"/>
<path d="M601.295 48.4053C602.002 51.1189 604.047 47.7323 601.295 48.4053Z" fill="#FBF891"/>
<path d="M594.304 26.7882L594.339 27.8921C596.278 29.6886 595.515 23.9671 594.304 26.7882Z" fill="#FBF891"/>
<path d="M596.701 68.2313C594.727 69.0389 594.746 71.213 592.838 71.2814C594.365 72.6958 596.914 68.6731 596.701 68.2313Z" fill="#FBF891"/>
<path d="M587.053 450.758C586.957 450.997 586.875 451.266 586.865 451.653C587.145 451.506 587.161 451.15 587.053 450.758Z" fill="#FBF891"/>
<path d="M575 323.478C577.844 324.811 577.036 321.596 575 323.478Z" fill="#FBF891"/>
<path d="M585.05 451.358C586.031 452.503 585.603 452.865 584.774 453.918C586.402 454.096 586.692 451.358 585.05 451.358Z" fill="#FBF891"/>
<path d="M573.437 118.705C573.036 118.405 572.044 118.954 571.998 119.122C571.286 121.116 574.15 119.291 573.437 118.705Z" fill="#FBF891"/>
<path d="M583.767 82.1871L583.736 80.7293C582.179 79.2835 582.799 84.2615 583.767 82.1871Z" fill="#FBF891"/>
<path d="M291.261 321.719C291.903 321.015 289.805 320.263 289.394 320.701C288.853 321.276 290.977 322.034 291.261 321.719Z" fill="#FBF891"/>
<path d="M289.556 372.818C288.686 372.177 284.493 372.32 284.773 371.897C283.868 373.246 286.57 375.586 287.454 373.952C287.16 373.825 287.13 373.429 287.734 372.519C287.734 373.189 287.613 373.643 287.454 373.952C288.096 374.243 290.034 373.18 289.556 372.818" fill="#FBF891"/>
<path d="M295.372 325.224C294.374 325.28 293.164 323.611 292.452 324.593C293.55 324.441 294.451 326.439 295.372 325.224Z" fill="#FBF891"/>
<path d="M293.041 378.517C292.339 375.805 290.29 379.168 293.041 378.517Z" fill="#FBF891"/>
<path d="M296.71 312.046C297.789 311.187 294.853 308.148 293.317 308.886C291.668 309.685 293.83 309.629 293.372 310.707C293.204 311.119 292.217 311.899 293.403 311.079C294.64 310.209 294.853 313.455 296.71 312.046" fill="#FBF891"/>
<path d="M288.813 247.829C289.627 246.953 286.636 246.618 286.992 247.534C287.257 248.236 288.539 248.134 288.813 247.829Z" fill="#FBF891"/>
<path d="M278.281 209.591C279.197 212.848 281.858 209.673 278.281 209.591Z" fill="#FBF891"/>
<path d="M298.486 330.561C296.532 330.826 295.22 327.749 294.131 330.358C295.697 330.383 297.774 331.865 298.486 330.561Z" fill="#FBF891"/>
<path d="M281.833 264.863C280.464 265.321 280.153 264.573 279.686 265.677C281.019 265.779 281.553 266.273 281.833 264.863Z" fill="#FBF891"/>
<path d="M276.149 191.816C279.172 194.965 279.396 191.501 276.149 191.816Z" fill="#FBF891"/>
<path d="M287.836 154.56C288.468 154.443 289.358 154.057 288.853 153.059C288.122 151.569 285.664 154.967 287.836 154.56Z" fill="#FBF891"/>
<path d="M319.342 103.424C316.508 102.096 317.318 105.314 319.342 103.424Z" fill="#FBF891"/>
<path d="M315.705 333.548C314.972 329.345 313.649 333.264 315.705 333.548Z" fill="#FBF891"/>
<path d="M283.384 383.264C285.664 382.201 281.019 382.796 281.955 383.666C282.378 384.057 283.344 383.288 283.384 383.264Z" fill="#FBF891"/>
<path d="M317.49 246.74C317.449 246.567 315.317 246.856 315.368 247.916C316.188 247.076 317.77 248.307 318.605 247.417C318.223 247.829 317.536 246.902 317.49 246.74" fill="#FBF891"/>
<path d="M330.114 445.258C331.864 444.321 329.193 444.179 328.984 444.572C328.521 445.507 330.139 445.243 330.114 445.258Z" fill="#FBF891"/>
<path d="M315.887 338.647C316.392 337.537 315.536 336.25 314.712 336.509C313.293 336.947 315.434 339.654 315.887 338.647Z" fill="#FBF891"/>
<path d="M300.012 399.022C298.064 397.235 298.822 402.94 300.038 400.121L300.012 399.022Z" fill="#FBF891"/>
<path d="M320.904 308.184C321.306 308.525 322.299 307.95 322.349 307.787C323.046 305.808 320.192 307.62 320.904 308.184Z" fill="#FBF891"/>
<path d="M306.424 309.481C309.73 310.413 307.94 307.558 306.424 309.481Z" fill="#FBF891"/>
<path d="M297.514 324.034C300.887 325.625 299.671 323.082 297.514 324.034Z" fill="#FBF891"/>
<path d="M310.962 45.4463C312.367 44.871 313.817 44.3456 314.132 42.7619C311.715 42.4048 312.545 45.0414 310.962 45.4463Z" fill="#FBF891"/>
<path d="M300.012 207.316C300.424 207.643 301.371 207.027 301.437 206.9C302.378 205.348 298.908 206.462 300.012 207.316Z" fill="#FBF891"/>
<path d="M330.343 423.018C330.979 426.966 333.227 422.925 330.343 423.018Z" fill="#FBF891"/>
<path d="M305.813 130.179C305.059 130.041 304.251 132.718 305.859 131.288C306.062 131.079 306.5 130.326 305.813 130.179Z" fill="#FBF891"/>
<path d="M268.105 334.622C268.802 334.423 270.129 334.128 269.509 333.111C268.802 332 266.064 335.227 268.105 334.622Z" fill="#FBF891"/>
<path d="M266.863 311.354C267.041 311.297 268.018 310.744 267.916 310.58C267.139 309.059 263.526 312.397 266.863 311.354Z" fill="#FBF891"/>
<path d="M248.286 165.724C248.19 165.878 248.078 166.035 247.987 166.183L247.925 166.376C249.839 166.401 252.531 167.362 252.27 166.105C250.704 165.526 249.441 165.541 248.286 165.724Z" fill="#FBF891"/>
<path d="M260.325 311.602C260.971 313.002 262.961 314.451 263.795 314.167C263.383 314.116 263.449 312.046 263.638 312.208C262.981 311.648 260.839 312.544 260.325 311.602Z" fill="#FBF891"/>
<path d="M263.658 217.081C265.444 214.665 262.188 214.69 263.658 217.081Z" fill="#FBF891"/>
<path d="M264.481 27.5274C266.268 23.7663 262.665 25.6843 264.481 27.5274Z" fill="#FBF891"/>
<path d="M266.385 260.351C267.296 265.708 271.407 262.615 268.166 259.189C268.97 262.584 267.062 259.749 266.385 260.351Z" fill="#FBF891"/>
<path d="M282.378 269.575C281.512 268.333 280.754 266.253 279.385 267.514C280.443 267.835 281.889 269.072 281.293 269.982L282.016 269.962C282.234 269.931 282.454 269.88 282.378 269.575Z" fill="#FBF891"/>
<path d="M218.948 251.858C218.185 252.693 221.351 254.367 221.549 253.227C221.554 253.156 219.503 251.269 218.948 251.858Z" fill="#FBF891"/>
<path d="M244.034 253.059C243.671 253.578 243.642 254.03 244.369 253.838C244.354 253.619 244.267 253.39 244.068 253.11L244.034 253.059Z" fill="#FBF891"/>
<path d="M207.383 138.233C208.747 136.711 208.884 136.885 210.207 136.294C207.47 135.028 207.587 135.349 207.383 138.233Z" fill="#FBF891"/>
<path d="M243.295 204.707C242.959 204.925 243.137 205.546 243.473 206.07L243.453 205.968C243.366 205.628 243.295 205.154 243.295 204.707" fill="#FBF891"/>
<path d="M231.893 103.758C231.837 103.782 231.648 102.412 231.103 102.338C229.959 102.175 229.232 104.274 231.893 103.758Z" fill="#FBF891"/>
<path d="M221.661 64.049C220.917 65.1496 222.877 65.8216 223.914 66.1711C223.304 65.3146 222.862 64.2834 221.661 64.049Z" fill="#FBF891"/>
<path d="M273.926 420.779C272.302 419.284 271.931 423.888 273.59 421.893C273.646 421.823 273.768 420.651 273.926 420.779Z" fill="#FBF891"/>
<path d="M265.581 450.631C265.53 450.341 265.398 450.198 265.271 450.087C265.164 450.87 264.543 452.467 264.568 452.503C264.65 452.56 265.907 452.503 266.024 452.441C267.484 451.699 265.617 450.769 265.581 450.631Z" fill="#FBF891"/>
<path d="M261.893 448.947C263.882 446.596 259.038 448.179 260.076 449.018C261.357 450.041 261.959 448.87 261.893 448.947Z" fill="#FBF891"/>
<path d="M264.838 449.934C264.823 449.944 265.052 449.944 265.271 450.087C265.327 449.699 265.24 449.516 264.838 449.934Z" fill="#FBF891"/>
<path d="M271.799 307.141C270.242 308.275 271.885 309.146 272.236 308.962C273.951 308.01 272.252 306.825 271.799 307.141Z" fill="#FBF891"/>
<path d="M259.195 352.679C259.089 352.893 259.012 353.178 259.002 353.56C259.292 353.433 259.307 353.071 259.195 352.679Z" fill="#FBF891"/>
<path d="M272.755 342.117C272.506 343.449 271.901 345.622 273.29 346.829C273.493 345.133 273.137 343.348 272.755 342.117Z" fill="#FBF891"/>
<path d="M262.243 390.977C264.528 390.683 264.737 391.573 263.012 392.051C263.693 391.938 263.826 392.427 264.481 392.356C265.469 391.095 262.839 389.238 262.243 390.977Z" fill="#FBF891"/>
<path d="M260.823 401.606C260.015 402.239 257.73 401.525 257.989 403.169C258.671 402.411 260.626 402.818 260.823 401.606Z" fill="#FBF891"/>
<path d="M257.175 353.255C258.173 354.419 257.745 354.775 256.901 355.819C258.524 356.013 258.829 353.255 257.175 353.255Z" fill="#FBF891"/>
<path d="M256.219 260.747C256.24 261.093 255.806 261.058 255.842 260.391C255.833 260.335 256.876 260.365 256.921 259.974C256.936 259.893 255.543 259.043 255.456 259.669C255.456 259.648 256.382 262.544 256.219 260.747" fill="#FBF891"/>
<path d="M411.051 173.188C410.267 172.491 407.783 174.481 408.593 175.122C409.966 173.712 412.902 174.873 411.051 173.188Z" fill="#FBF891"/>
<path d="M366.488 340.37C364.764 342.543 368.437 343.017 366.488 340.37Z" fill="#FBF891"/>
<path d="M380.049 410.185C378.394 409.523 377.139 413.167 379.413 412.775C380.715 412.536 380.318 410.312 380.049 410.185Z" fill="#FBF891"/>
<path d="M382.308 28.1549C383.457 27.28 380.44 26.696 379.84 27.7011C380.049 27.6642 380.399 28.373 381.219 28.55C381.173 28.5282 381.876 28.4599 382.308 28.1549" fill="#FBF891"/>
<path d="M379.295 323.102L381.469 323.02C381.814 321.49 378.833 321.611 379.295 323.102Z" fill="#FBF891"/>
<path d="M378.919 438.282C373.439 439.091 376.776 442.205 378.919 438.282Z" fill="#FBF891"/>
<path d="M374.772 414.755C373.851 414.551 372.843 414.5 371.857 414.877C372.249 415.238 374.462 415.522 374.772 414.755Z" fill="#FBF891"/>
<path d="M373.215 133.822C374.894 132.809 376.715 131.939 378.186 130.718C376.298 130.952 373.012 132.026 373.215 133.822Z" fill="#FBF891"/>
<path d="M375.225 167.993C376.935 167.24 374.167 166.518 373.735 166.961C373.068 167.678 374.879 168.171 375.225 167.993Z" fill="#FBF891"/>
<path d="M373.099 102.491C373.693 100.064 370.636 101.224 370.925 102.554C372.06 102.358 372.381 101.192 373.099 102.491Z" fill="#FBF891"/>
<path d="M380.399 266.233C379.53 267.144 381.728 267.729 381.89 266.898C381.84 267.152 381.229 265.321 380.399 266.233Z" fill="#FBF891"/>
<path d="M382.563 160.071C380.654 162.86 384.587 162.483 382.563 160.071Z" fill="#FBF891"/>
<path d="M380.44 190.396C381.743 190.305 381.092 187.781 383.289 188.83C381.814 186.174 378.771 190.519 380.44 190.396Z" fill="#FBF891"/>
<path d="M385.381 22.7709V22.7535C385.925 22.48 385.691 22.2173 385.259 22.074C384.704 21.9167 383.93 21.9166 383.885 22.251C383.737 23.3918 384.388 23.1313 385.015 22.9316C385.172 22.886 385.274 22.8295 385.381 22.7709" fill="#FBF891"/>
<path d="M383.93 23.3311C382.974 22.4616 381.987 26.6287 383.279 25.1905C383.737 24.6695 384.216 23.6111 383.93 23.3311Z" fill="#FBF891"/>
<path d="M383.981 360.825C382.745 361.294 380.333 360.627 381.122 362.051C381.122 361.441 383.763 362.164 383.981 360.825Z" fill="#FBF891"/>
<path d="M382.363 308.417C382.475 308.362 383.264 307.838 383.061 307.665C381.931 306.596 380.364 309.334 382.363 308.417Z" fill="#FBF891"/>
<path d="M406.99 401.516C410.964 400.899 408.944 396.813 406.99 401.516Z" fill="#FBF891"/>
<path d="M410.226 419.974C409.875 420.632 411.365 422.493 412.469 421.715C414.724 420.112 410.663 419.155 410.226 419.974Z" fill="#FBF891"/>
<path d="M408.42 372.295C410.297 367.821 407.321 369.446 408.42 372.295Z" fill="#FBF891"/>
<path d="M416.439 171.535C417.344 169.653 414.505 171.622 415.36 171.946C415.824 172.105 416.348 171.768 416.439 171.535Z" fill="#FBF891"/>
<path d="M387.359 142.269C387.777 142.049 388.154 141.734 388.402 141.271C388.006 141.317 387.681 141.357 387.359 141.398C383.086 142.065 385.579 143.214 387.359 142.269" fill="#FBF891"/>
<path d="M394.998 46.6056C398.417 47.6096 397.811 43.9136 394.998 46.6056Z" fill="#FBF891"/>
<path d="M405.825 44.7354C407.921 46.9997 408.013 43.6206 405.825 44.7354Z" fill="#FBF891"/>
<path d="M396.59 50.5545C396.666 51.399 398.254 52.5029 398.824 51.5683C397.624 51.729 398.345 49.8023 396.59 50.5545Z" fill="#FBF891"/>
<path d="M395.537 358.221C396.666 359.289 397.216 358.266 397.709 357.772C398.488 356.913 394.82 357.549 395.537 358.221Z" fill="#FBF891"/>
<path d="M408.821 46.8107C403.983 49.1933 407.743 50.6424 408.821 46.8107Z" fill="#FBF891"/>
<path d="M415.39 143.875C415.92 142.578 414.154 143.703 414.271 142.837C418.062 144.511 416.638 141.108 415.279 140.599C413.187 139.84 410.165 142.919 409.896 142.629C411.742 142.4 413.269 143.428 415.39 143.875" fill="#FBF891"/>
<path d="M415.472 40.0081C415.712 38.1346 418.026 38.8033 415.381 37.8133C416.032 39.384 413.828 39.4925 415.472 40.0081Z" fill="#FBF891"/>
<path d="M406.542 111.403C406.706 111.551 409.686 111.918 408.709 111.333L408.338 111.347C408.531 111.002 407.672 110.945 407.626 110.681C407.819 110.131 408.806 105.691 406.679 105.956C405.657 106.066 404.93 110.131 406.542 111.403" fill="#FBF891"/>
<path d="M367.858 136.93C368.977 137.134 369.424 138.045 370.467 138.294C371.734 137.032 368.32 136.258 367.858 136.93Z" fill="#FBF891"/>
<path d="M345.658 327.676C344.864 331.548 347.637 328.97 345.658 327.676Z" fill="#FBF891"/>
<path d="M349.713 396.406C349.825 395.958 347.927 394.926 347.861 395.74C347.861 395.974 349.363 397.623 349.713 396.406Z" fill="#FBF891"/>
<path d="M353.055 235.556C353.504 235.902 353.85 235.581 353.778 235.149C353.189 231.434 351.103 233.551 351.595 235.225C351.529 235.017 353.123 235.581 353.055 235.556Z" fill="#FBF891"/>
<path d="M352.608 108.361C352.171 107.659 349.392 108.891 350.482 109.536C350.639 108.651 352.822 109.612 352.608 108.361Z" fill="#FBF891"/>
<path d="M360.607 319.444C359.814 318.721 356.877 322.959 360.281 320.557C360.332 320.523 360.78 319.608 360.607 319.444Z" fill="#FBF891"/>
<path d="M363.202 397.714C361.044 399.2 361.523 400.757 360.103 401.831C361.817 401.241 363.822 399.338 363.202 397.714Z" fill="#FBF891"/>
<path d="M363.319 45.2586C362.927 45.213 363.038 45.8252 363.319 45.2586Z" fill="#FBF891"/>
<path d="M339.491 241.901C338.386 244.287 342.844 240.659 339.852 241.87C339.735 241.921 339.756 241.326 339.491 241.901Z" fill="#FBF891"/>
<path d="M347.479 395.399C343.43 398.203 346.527 399.887 347.479 395.399Z" fill="#FBF891"/>
<path d="M340.488 191.562C339.7 191.064 337.521 191.658 337.263 192.777C338.682 192.285 339.929 193.22 340.488 191.562Z" fill="#FBF891"/>
<path d="M338.448 214.241C339.094 213.524 336.795 212.557 336.586 213.215C336.281 214.182 337.797 214.934 338.448 214.241Z" fill="#FBF891"/>
<path d="M359.447 269.931C360.348 268.059 357.498 270.007 358.378 270.333C358.826 270.49 359.35 270.145 359.447 269.931Z" fill="#FBF891"/>
<path d="M346.192 284.647C347.103 280.418 343.877 283.409 346.192 284.647Z" fill="#FBF891"/>
<path d="M337.227 9.43169C334.815 10.096 333.838 12.4525 333.03 13.614C336.362 14.6495 335.762 10.7994 337.227 9.43169Z" fill="#FBF891"/>
<path d="M344.895 326.959C345.679 327.086 347.129 326.714 347.047 325.804C346.849 323.902 343.022 326.705 344.895 326.959Z" fill="#FBF891"/>
<path d="M329.335 59.68C330.882 58.4437 327.58 58.6271 327.865 59.7397C328.038 60.4529 328.77 60.1337 329.335 59.68Z" fill="#FBF891"/>
<path d="M387.579 359.971C389.309 359.813 389.985 359.726 390.85 359.498C390.672 357.975 388.006 359.467 387.579 359.971Z" fill="#FBF891"/>
<path d="M386.556 351.627C385.941 351.25 386.923 350.344 385.747 350.207Z" fill="#FBF891"/>
<path d="M384.241 137.413C385.024 137.322 385.289 133.924 384.154 135.215C385.091 135.506 383.635 136.955 384.241 137.413Z" fill="#FBF891"/>
<path d="M393.054 235.123C396.91 233.033 390.123 233.821 391.96 235.521C392.326 235.847 393.003 235.149 393.054 235.123Z" fill="#FBF891"/>
<path d="M368.58 136.554L370.397 136.482C372.254 134.463 366.459 134.569 368.58 136.554Z" fill="#FBF891"/>
<path d="M203.984 317.301C206.763 320.807 206.178 315.715 203.984 317.301Z" fill="#FBF891"/>
<path d="M358.042 165.383C358.398 166.34 360.388 166.105 360.592 165.648C361.391 163.856 357.386 163.608 358.042 165.383Z" fill="#FBF891"/>
<path d="M359.091 241.158C355.183 239.006 356.69 242.811 359.091 241.158Z" fill="#FBF891"/>
<path d="M365.776 321.448C365.232 318.111 364.458 324.272 365.543 325.102C366.488 323.631 365.863 322.034 365.776 321.448Z" fill="#FBF891"/>
<path d="M364.418 113.022C365.125 112.889 366.6 112.335 365.817 111.495C364.591 110.218 362.275 113.439 364.418 113.022Z" fill="#FBF891"/>
<path d="M388.037 314.036C389.212 312.473 390.616 314.758 391.303 314.265Z" fill="#FBF891"/>
<path d="M365.456 225.167V225.175C365.232 225.862 365.314 226.28 365.517 226.428C365.975 226.733 366.911 225.888 365.73 224.499C365.588 224.76 365.517 224.963 365.456 225.167" fill="#FBF891"/>
<path d="M258.035 308.418C254.698 307.95 257.567 310.799 258.035 308.418Z" fill="#FBF891"/>
<path d="M114.988 165.795C112.983 164.966 110.844 168.415 115.054 167.618C114.057 168.203 113.657 169.911 115.131 169.424C118.021 168.502 115.925 166.192 114.988 165.795Z" fill="#FBF891"/>
<path d="M110.215 174.002C109.081 173.977 110.261 175.844 110.215 174.002Z" fill="#FBF891"/>
<path d="M114.424 64.4973C114.851 64.2237 115.403 64.5418 115.698 64.2834C115.365 64.2834 114.865 62.3339 114.967 61.9714C114.454 62.424 111.803 66.0364 114.424 64.4973" fill="#FBF891"/>
<path d="M116.739 126.006C117.146 126.317 118.133 125.762 118.184 125.584C118.646 124.221 115.802 125.253 116.739 126.006Z" fill="#FBF891"/>
<path d="M121.425 76.6273C120.672 79.8913 123.235 78.7049 121.425 76.6273Z" fill="#FBF891"/>
<path d="M114.174 182.957C113.392 184.093 115.196 184.133 115.304 184.011C116.344 182.836 114.306 182.785 114.174 182.957Z" fill="#FBF891"/>
<path d="M109.427 172.939C109.732 172.654 110.196 173.677 110.215 174.002C110.465 174.002 111.182 174.801 111.325 174.684C113.075 173.296 109.92 172.482 109.427 172.939Z" fill="#FBF891"/>
<path d="M141.897 111.638C141.935 111.708 141.79 111.856 141.592 112.04L141.63 113.134V113.414C142.209 112.879 142.51 111.831 141.897 111.638Z" fill="#FBF891"/>
<path d="M127.82 341.71C125.304 341.939 120.903 342.351 122.442 343.373C124.363 344.696 123.582 342.513 124.585 342.198C125.179 342.009 127.673 343.562 127.82 341.71" fill="#FBF891"/>
<path d="M94.3914 274.832C95.7829 273.422 98.6942 274.581 96.8597 272.924C96.0858 272.206 93.5903 274.191 94.3914 274.832Z" fill="#FBF891"/>
<path d="M87.4151 301.706C87.7765 303.162 89.2148 302.037 89.2376 301.992C89.7586 300.587 87.1252 301.732 87.4151 301.706Z" fill="#FBF891"/>
<path d="M87.4151 388.453C86.9733 388.922 88.0826 389.996 88.8967 389.115C89.573 388.399 87.7765 388.051 87.4151 388.453Z" fill="#FBF891"/>
<path d="M104.301 56.5083C102.782 56.8513 105.102 59.4206 105.446 58.27C105.382 58.5338 105.334 56.2706 104.301 56.5083Z" fill="#FBF891"/>
<path d="M95.8622 457.724C95.2977 457.693 94.793 458.217 94.4706 458.853C95.2283 458.833 95.9686 458.813 96.7262 458.787C96.7577 458.232 96.5384 457.759 95.8622 457.724Z" fill="#FBF891"/>
<path d="M105.298 64.1185C105.732 65.2995 106.924 65.6458 107.939 66.2004C107.794 64.7144 105.91 65.1236 105.298 64.1185Z" fill="#FBF891"/>
<path d="M134.119 37.4974C134.034 34.8554 131.82 39.5848 134.542 38.9509C135.827 38.6567 134.135 37.899 134.119 37.4974Z" fill="#FBF891"/>
<path d="M127.175 17.3545C129.992 18.6332 129.551 15.3388 127.175 17.3545Z" fill="#FBF891"/>
<path d="M128.737 20.2245C131.779 20.4611 128.896 17.7811 128.737 20.2245Z" fill="#FBF891"/>
<path d="M122.572 58.7128C122.292 62.2927 125.297 60.6254 122.572 58.7128Z" fill="#FBF891"/>
<path d="M125.918 70.2633C126.696 69.9973 127.271 66.4283 127.535 65.4568C126.551 66.0528 127.535 66.7702 126.162 67.3412C126.363 65.7304 125.304 65.4698 124.259 65.2137C124.683 66.894 124.594 70.6638 125.918 70.2633Z" fill="#FBF891"/>
<path d="M130.922 77.7171C132.359 76.1801 129.153 75.5408 129.443 77.4121C129.556 78.1112 130.517 78.1568 130.922 77.7171Z" fill="#FBF891"/>
<path d="M140.271 113.448C140.749 113.902 141.24 113.759 141.619 113.414L141.63 113.134L141.576 112.04C141.042 112.507 140.011 113.215 140.271 113.448Z" fill="#FBF891"/>
<path d="M122.661 358.684C122.65 357.752 124.049 358.102 124.049 357.172C121.801 356.627 122.292 357.492 122.661 358.684Z" fill="#FBF891"/>
<path d="M131.878 74.4065C129.296 74.0298 129.642 74.2979 128.288 75.6222C129.602 75.5679 132.139 74.769 131.878 74.4065Z" fill="#FBF891"/>
<path d="M128.833 22.771C128.655 22.8383 128.116 20.3786 127.673 20.98C127.983 21.78 127.744 23.6209 128.833 22.771Z" fill="#FBF891"/>
<path d="M136.16 100.846C132.7 100.308 135.058 103.485 136.16 100.846Z" fill="#FBF891"/>
<path d="M125.842 145.346C126.552 146.139 126.65 145.596 128.386 145.245C131.209 144.679 128.591 144.024 127.922 142.716C127.716 142.294 128.386 140.365 127.464 140.172C125.856 139.831 124.971 144.359 125.842 145.346" fill="#FBF891"/>
<path d="M94.5596 452.32C95.3737 451.939 97.3731 450.947 97.0171 450.041C96.1976 447.853 94.5335 454.213 93.8139 451.613C94.2036 453.027 94.3154 452.441 94.5596 452.32" fill="#FBF891"/>
<path d="M88.4441 300.21C90.2448 301.137 92.6003 299.411 94.5596 298.873C91.9338 298.724 90.7539 298.425 88.4441 300.21Z" fill="#FBF891"/>
<path d="M66.2485 290.111C67.5543 290.024 66.8846 287.501 69.1087 288.544C67.6281 285.882 64.5932 290.238 66.2485 290.111Z" fill="#FBF891"/>
<path d="M69.7242 123.04C68.7831 122.175 67.791 126.337 69.0729 124.907C69.5331 124.378 70.027 123.325 69.7242 123.04Z" fill="#FBF891"/>
<path d="M68.872 407.377C67.7269 406.309 66.1801 409.045 68.1774 408.118C68.274 408.069 69.0631 407.544 68.872 407.377Z" fill="#FBF891"/>
<path d="M77.7588 335.227C78.1246 335.553 78.8116 334.855 78.8572 334.836C82.7291 332.734 75.9167 333.528 77.7588 335.227Z" fill="#FBF891"/>
<path d="M73.164 241.997C73.571 241.769 73.9531 241.443 74.1941 240.985C73.8098 241.025 73.469 241.067 73.164 241.127C68.9057 241.779 71.3708 242.918 73.164 241.997" fill="#FBF891"/>
<path d="M78.079 410.668C75.5303 410.185 75.209 412.51 73.8359 413.763C75.0256 412.2 76.4302 414.479 77.1021 413.992C77.5656 413.661 76.3846 411.239 78.079 410.668" fill="#FBF891"/>
<path d="M97.1951 454.421C94.6204 452.077 92.799 458.822 94.768 457.408C96.0402 456.487 96.3702 458.975 97.6912 458.039C95.416 457.144 97.3428 454.548 97.1951 454.421" fill="#FBF891"/>
<path d="M67.6867 366.599C67.6433 366.865 67.0376 365.039 66.2029 365.934C65.3356 366.865 67.5261 367.465 67.6867 366.599Z" fill="#FBF891"/>
<path d="M67.2775 422.738C67.6097 421.211 64.6409 421.338 65.0936 422.819L67.2775 422.738Z" fill="#FBF891"/>
<path d="M69.0881 29.3988C69.2151 30.0078 66.6002 28.2732 67.5977 28.373C64.9796 28.1082 66.28 31.4308 68.4238 30.5331C68.7983 30.354 69.2151 30.0078 69.0881 29.3988Z" fill="#FBF891"/>
<path d="M78.5577 452.213C78.5577 452.111 77.2193 452.32 77.1021 452.255C77.3843 452.441 74.6044 447.766 73.6926 448.382C73.9217 450.468 75.2904 451.195 74.5729 452.721C73.4158 455.296 79.1579 455.387 78.5577 452.213" fill="#FBF891"/>
<path d="M68.3608 259.791C66.4678 262.57 70.3961 262.192 68.3608 259.791Z" fill="#FBF891"/>
<path d="M68.1058 127.858C69.2759 126.989 66.2485 126.428 65.6591 127.415C65.8469 127.37 66.2008 128.092 67.0377 128.25C66.9714 128.235 67.6716 128.174 68.1058 127.858Z" fill="#FBF891"/>
<path d="M70.8086 122.653C70.9866 122.597 71.0853 122.531 71.1743 122.475C71.7236 122.19 71.4848 121.926 71.0571 121.788C70.5231 121.621 69.7394 121.621 69.6883 121.972C69.5331 123.1 70.1898 122.852 70.8086 122.653" fill="#FBF891"/>
<path d="M70.0444 237.138C70.8237 237.036 71.0853 233.638 69.9608 234.941C70.8867 235.215 69.4397 236.686 70.0444 237.138Z" fill="#FBF891"/>
<path d="M92.3366 211.117C92.5037 211.265 95.4909 211.647 94.5216 211.047L94.1569 211.061C94.3306 210.731 93.4806 210.65 93.4351 210.395C93.638 209.84 94.6204 205.399 92.4907 205.668C91.466 205.78 90.7377 209.84 92.3366 211.117Z" fill="#FBF891"/>
<path d="M101.075 240.313C98.9905 239.555 95.9837 242.638 95.7069 242.344C97.562 242.13 99.0752 243.142 101.207 243.595C101.711 242.288 99.9631 243.422 100.073 242.542C103.858 244.247 102.434 240.818 101.075 240.313" fill="#FBF891"/>
<path d="M99.1283 35.549C98.7473 36.7083 97.1951 36.7865 97.0681 38.1921C97.8062 37.5908 99.7286 36.2524 99.1283 35.549Z" fill="#FBF891"/>
<path d="M101.174 271.646C101.624 271.819 102.144 271.483 102.245 271.249C103.143 269.376 100.296 271.35 101.174 271.646Z" fill="#FBF891"/>
<path d="M101.22 32.9298C98.4749 33.9555 101.311 36.5856 101.22 32.9298Z" fill="#FBF891"/>
<path d="M101.408 18.7038C102.701 18.8492 103.276 18.3239 103.54 17.5337C102.434 17.5586 101.711 17.9363 101.408 18.7038Z" fill="#FBF891"/>
<path d="M101.26 139.714C101.51 137.847 103.846 138.517 101.199 137.521C101.845 139.093 99.6396 139.204 101.26 139.714Z" fill="#FBF891"/>
<path d="M81.33 457.927C82.4795 459 83.0092 457.988 83.5085 457.484C84.2868 456.619 80.6103 457.266 81.33 457.927Z" fill="#FBF891"/>
<path d="M82.4067 150.261C82.4599 151.111 84.0675 152.21 84.6167 151.279C83.4195 151.457 84.1543 149.503 82.4067 150.261Z" fill="#FBF891"/>
<path d="M94.6204 146.527C89.8064 148.898 93.5371 150.353 94.6204 146.527Z" fill="#FBF891"/>
<path d="M73.8098 451.282C73.1542 448.87 73.0923 451.806 72.3596 451.348C71.755 450.961 72.7363 450.082 71.564 449.913C67.4088 449.323 72.0546 455.144 72.1621 455.724C71.6248 453.23 74.2429 452.88 73.8098 451.282" fill="#FBF891"/>
<path d="M80.7992 146.317C84.2303 147.326 83.6073 143.621 80.7992 146.317Z" fill="#FBF891"/>
<path d="M91.644 144.445C93.7248 146.72 93.8139 143.331 91.644 144.445Z" fill="#FBF891"/>
<path d="M184.319 191.587C184.442 191.516 184.563 191.501 184.711 191.501C183.866 188.254 182.1 184.474 184.008 193.414C183.897 192.834 184.737 192.875 184.98 192.7L184.95 192.573C184.665 192.344 184.008 191.755 184.319 191.587Z" fill="#FBF891"/>
<path d="M192.21 236.843C193.248 237.657 192.653 237.825 191.569 239.066C192.369 239.947 195.595 235.75 192.21 236.843Z" fill="#FBF891"/>
<path d="M191.814 341.821C189.529 341.964 189.977 343.241 192.21 342.543C194.836 341.71 192.882 341.766 191.814 341.821Z" fill="#FBF891"/>
<path d="M188.719 163.729C187.443 163.074 184.502 165.673 186.99 166.706C186.369 164.818 187.662 165.649 188.211 165.113C188.227 164.773 188.501 163.608 188.719 163.729Z" fill="#FBF891"/>
<path d="M190.44 353.167C190.786 353.051 190.974 350.237 188.552 351.805C188.338 351.932 189.402 353.56 190.44 353.167Z" fill="#FBF891"/>
<path d="M191.035 244.18C189.713 244.16 188.465 245.997 188.934 246.455C189.783 245.844 190.18 244.781 191.035 244.18Z" fill="#FBF891"/>
<path d="M186.7 168.171C186.441 167.993 186.487 167.016 185.937 167.469C186.384 167.099 185.387 172.339 187.85 169.591C189.279 167.968 187.586 168.833 186.7 168.171" fill="#FBF891"/>
<path d="M188.38 164.834C188.359 164.946 188.278 165.037 188.211 165.113C188.211 165.271 188.242 165.251 188.38 164.834Z" fill="#FBF891"/>
<path d="M184.853 388.383C184.817 388.58 184.141 388.103 184.11 388.051C184.186 388.25 185.285 387.635 184.457 387.671C180.549 387.803 184.502 390.357 184.853 388.383Z" fill="#FBF891"/>
<path d="M173.888 60.7698C173.644 59.9275 173.344 59.1069 172.372 59.0331C173.278 59.9818 172.361 60.5429 173.888 60.7698Z" fill="#FBF891"/>
<path d="M172.505 431.927C172.666 431.835 172.921 431.693 173.404 431.458C175.765 430.278 175.455 428.624 173.334 429.638C172.723 429.921 173.68 430.42 173.389 431.097C173.247 431.433 172.764 431.77 172.505 431.927Z" fill="#FBF891"/>
<path d="M166.674 100.407C168.109 99.4579 165.793 99.2799 165.564 99.7423C165.11 100.643 166.643 100.45 166.674 100.407Z" fill="#FBF891"/>
<path d="M186.344 149.234C185.866 149.757 187.244 151.37 187.473 150.276C187.57 149.803 186.852 148.693 186.344 149.234Z" fill="#FBF891"/>
<path d="M176.326 432.075C177.124 431.744 177.846 430.752 177.007 430.598C176.57 430.522 174.661 432.792 176.326 432.075Z" fill="#FBF891"/>
<path d="M187.041 71.5767C185.199 73.6738 188.414 73.6358 187.041 71.5767Z" fill="#FBF891"/>
<path d="M165.457 29.7461C164.994 31.6196 165.228 31.4047 166.236 31.1703C169.498 30.5016 166.409 25.9448 165.457 29.7461Z" fill="#FBF891"/>
<path d="M181.017 162.192C180.264 163.006 183.209 163.684 183.23 162.824C183.23 162.885 181.536 161.624 181.017 162.192Z" fill="#FBF891"/>
<path d="M184.711 191.501C184.807 191.878 184.889 192.223 184.95 192.573L185.087 192.646L184.98 192.7C185.173 193.703 185.154 194.442 184.777 194.36C185.296 194.62 186.013 194.665 186.242 194.426C187.183 193.444 185.835 191.485 184.711 191.501Z" fill="#FBF891"/>
<path d="M180.538 159.288C179.928 160.738 182.085 161.41 182.075 161.425C185.723 159.827 181.409 157.288 180.538 159.288Z" fill="#FBF891"/>
<path d="M200.3 123.915C200.545 123.859 201.665 123.666 201.735 123.493C202.733 120.938 197.355 124.537 200.3 123.915Z" fill="#FBF891"/>
<path d="M198.937 164.797C201.934 167.642 203.348 163.119 198.937 164.797Z" fill="#FBF891"/>
<path d="M198.428 65.2994C198.052 64.0902 197.242 63.3272 196.159 62.8615C196.576 64.0164 197.355 64.8338 198.428 65.2994Z" fill="#FBF891"/>
<path d="M199.054 330.994C200.219 329.08 197.924 328.261 197.151 329.228C196.719 329.784 198.098 332.509 199.054 330.994Z" fill="#FBF891"/>
<path d="M203.145 314.427C202.091 314.529 200.524 313.241 199.868 314.203C201.059 314.635 203.348 315.028 203.145 314.427Z" fill="#FBF891"/>
<path d="M197.207 157.94C196.021 156.82 192.638 160.422 195.792 159.089C196.159 158.941 197.267 157.985 197.207 157.94Z" fill="#FBF891"/>
<path d="M186.99 195.129C183.088 194.813 185.341 196.895 186.99 195.129Z" fill="#FBF891"/>
<path d="M183.662 385.507C185.173 388.382 188.527 384.739 183.662 385.507Z" fill="#FBF891"/>
<path d="M185.434 384.348C183.23 380.741 183.052 385.355 185.434 384.348Z" fill="#FBF891"/>
<path d="M183.576 316.249L185.402 316.193C185.245 314.712 183.749 315.206 183.576 316.249Z" fill="#FBF891"/>
<path d="M183.566 392.427C185.056 392.427 186.532 392.392 187.163 391.573C186.369 391.095 184.156 391.634 183.566 392.427" fill="#FBF891"/>
<path d="M161.59 90.7753C157.497 90.8795 160.288 93.3902 161.59 90.7753Z" fill="#FBF891"/>
<path d="M154.396 217.88C153.546 217.91 153.351 218.546 152.238 218.328C152.447 220.551 155.443 216.811 154.396 217.88Z" fill="#FBF891"/>
<path d="M150.305 131.11C150.761 131.181 151.164 133.292 152.268 132.677C153.048 132.234 152.976 130.264 153.256 130.097C154.773 129.079 150.585 129.054 150 130.215C150.908 130.647 151.46 129.079 151.791 130.143C151.486 131.379 150.783 130.901 150.305 131.11" fill="#FBF891"/>
<path d="M148.707 441.884C149.303 441.243 149.646 440.459 148.636 440.052C148.377 439.97 147.42 443.248 148.707 441.884Z" fill="#FBF891"/>
<path d="M150.025 131.303C150.104 131.176 150.203 131.156 150.305 131.11C150.214 131.099 150.127 131.13 150.025 131.303Z" fill="#FBF891"/>
<path d="M146.524 182.449C145.833 184.326 145.25 186.728 143.12 188.788C144.555 190.055 145.136 188.712 147.15 189.353C147.466 186.947 144.888 189.623 144.907 187.985C148.796 188.601 146.568 184.86 146.524 182.449" fill="#FBF891"/>
<path d="M148.88 81.7769C152.04 83.8392 151.473 80.2843 148.88 81.7769Z" fill="#FBF891"/>
<path d="M137.348 103.371C137.393 103.315 137.838 102.412 137.65 102.236C136.505 101.168 135.713 104.79 137.348 103.371Z" fill="#FBF891"/>
<path d="M150.015 226.795C148.447 225.975 149.191 228.733 149.002 229.022C148.234 230.289 147.758 228.443 147.58 229.806C147.491 230.534 148.514 230.65 148.377 231.231C148.148 232.142 146.755 232.009 146.957 232.731C147.535 234.61 149.915 229.429 150.015 226.795" fill="#FBF891"/>
<path d="M145.812 115.789C145.087 115.118 144.032 117.774 145.136 117.27C145.655 117.032 146.755 116.654 145.812 115.789Z" fill="#FBF891"/>
<path d="M141.042 114.512C139.017 113.179 137.482 118.689 137.269 120.836C140.213 121.682 141.431 114.772 141.042 114.512Z" fill="#FBF891"/>
<path d="M156.685 258.977C156.136 259.75 154.574 259.588 154.574 260.89C155.886 261.012 157.164 259.327 156.685 258.977Z" fill="#FBF891"/>
<path d="M150.694 225.313C151.327 224.932 152.605 222.032 152.717 221.585C152.518 222.291 152.391 219.722 153.394 220.104C149.936 218.795 149.058 226.235 150.694 225.313" fill="#FBF891"/>
<path d="M147.677 299.778C147.989 300.032 149.358 299.865 149.852 299.335C151.45 297.595 145.878 298.094 147.677 299.778Z" fill="#FBF891"/>
<path d="M169.197 80.2701C168.673 76.5828 166.409 79.3431 169.197 80.2701Z" fill="#FBF891"/>
<path d="M158.476 268.017C158.575 267.972 159.723 267.748 159.171 267.271C158.288 266.431 156.497 269.112 158.476 268.017Z" fill="#FBF891"/>
<path d="M164.551 63.3272C163.559 63.122 163.124 62.334 162.312 61.9584C162.285 63.0178 164.023 64.1098 164.551 63.3272Z" fill="#FBF891"/>
<path d="M167.284 279.344C167.599 278.906 167.539 277.833 166.861 277.909C166.053 277.986 166.312 280.626 167.284 279.344Z" fill="#FBF891"/>
<path d="M169.671 429.057C168.363 430.07 165.33 432.349 166.963 434.252C167.915 435.351 169.985 429.368 169.671 429.057Z" fill="#FBF891"/>
<path d="M145.598 81.5294C144.239 81.3741 144.064 79.9218 142.633 79.8371C142.731 81.1223 144.888 82.1546 145.598 81.5294Z" fill="#FBF891"/>
<path d="M168.932 428.705C169.334 429.082 170.307 428.366 170.377 428.298C171.665 426.89 168.22 428.064 168.932 428.705Z" fill="#FBF891"/>
<path d="M168.2 313.211C171.533 312.397 169.029 310.168 168.2 313.211Z" fill="#FBF891"/>
<path d="M167.497 198.781C165.442 198.756 165.961 202.941 168.322 201.308C169.12 200.756 168.643 198.806 167.497 198.781Z" fill="#FBF891"/>
<path d="M151.938 456.854H151.982C152.132 456.837 152.314 456.786 152.548 456.67C152.66 456.604 153.351 455.658 153.226 455.551C151.989 454.417 150.926 456.859 151.938 456.854" fill="#FBF891"/>
<path d="M160.801 88.9788C159.585 88.7965 158.177 90.2499 159.423 91.2127C159.606 90.2271 160.911 90.2499 160.801 88.9788Z" fill="#FBF891"/>
<path d="M143.222 66.6867C143.975 66.4284 145.626 67.0406 145.746 66.2286C144.814 65.9225 143.675 65.7033 143.222 66.6867Z" fill="#FBF891"/>
<path d="M160.46 214.724C160.445 214.953 160.43 215.163 160.112 215.112C160.375 213.794 158.308 215.224 158.331 215.89C159.433 215.311 161 215.412 160.46 214.724Z" fill="#FBF891"/>
<path d="M160.837 263.195C159.646 263.785 158.553 263.129 157.961 263.667C158.764 263.85 160.689 264.492 160.837 263.195Z" fill="#FBF891"/>
<path d="M141.518 110.141V110.157C140.65 109.766 139.426 109.755 139.452 110.926C139.452 111.521 141.024 111.684 141.577 111.581L141.639 111.566C142.833 111.22 142.319 110.508 141.518 110.141" fill="#FBF891"/>
<path d="M155.698 233.13C156.223 236.136 158.177 234.025 155.698 233.13Z" fill="#FBF891"/>
<path d="M402.624 200.496C404.451 201.41 406.797 199.697 408.76 199.163C406.125 199.016 404.945 198.711 402.624 200.496Z" fill="#FBF891"/>
<path d="M1.69594 438.368C2.1844 437.254 1.33556 435.962 0.531229 436.216C-0.909182 436.659 1.23571 439.36 1.69594 438.368Z" fill="#FBF891"/>
<path d="M4.00691 262.818C4.09808 262.661 4.20447 262.513 4.30108 262.355L4.35968 262.177C2.45469 262.152 -0.237262 261.174 0.0167368 262.426C1.57872 263.002 2.83569 262.996 4.00691 262.818" fill="#FBF891"/>
<path d="M5.14008 203.149C2.30159 201.817 3.11569 205.038 5.14008 203.149Z" fill="#FBF891"/>
<path d="M15.4749 404.985C15.6225 406.175 17.3777 406.128 17.6805 405.258C16.9153 404.413 16.264 405.81 15.4749 404.985Z" fill="#FBF891"/>
<path d="M1.49508 433.26C0.76999 429.057 -0.559705 432.97 1.49508 433.26Z" fill="#FBF891"/>
<path d="M3.29159 346.462C3.25794 346.294 1.11848 346.578 1.16733 347.627C1.99662 346.778 3.57381 348.018 4.41396 347.128C4.04924 347.541 3.34478 346.614 3.29159 346.462" fill="#FBF891"/>
<path d="M482.396 213.495C485.734 212.689 483.22 210.451 482.396 213.495Z" fill="#FBF891"/>
<path d="M482.528 101.595C483.301 101.033 482.843 99.1062 481.688 99.078C479.643 99.04 480.147 103.223 482.528 101.595Z" fill="#FBF891"/>
<path d="M483.133 328.989C483.525 329.366 484.487 328.658 484.583 328.588C485.871 327.162 482.421 328.348 483.133 328.989Z" fill="#FBF891"/>
<path d="M73.5711 13.5575C74.7694 13.9917 75.3263 11.2162 76.4714 13.0886C76.3846 12.9583 73.342 15.7632 72.4769 16.1637C72.7233 16.2886 73.0696 16.5425 72.9654 16.5176C74.7618 17.2112 74.0823 16.0964 74.7358 15.3583C75.5705 14.4118 76.9338 13.4674 78.1246 12.5871C77.7176 12.3798 77.0055 12.0802 76.1664 11.7817C75.1124 12.1985 74.154 12.687 73.5711 13.5575" fill="#FBF891"/>
<path d="M487.245 427.984C489.672 425.516 485.301 427.592 486.166 428.381C486.507 428.705 487.179 428.035 487.245 427.984Z" fill="#FBF891"/>
<path d="M481.247 3.18027e-06C480.829 0.00760143 480.346 0.0130203 479.765 0.0184476L479.76 0.0217337C479.297 0.934609 480.823 0.730544 480.88 0.702322C481.353 0.377768 481.388 0.150883 481.247 3.18027e-06Z" fill="#FBF891"/>
<path d="M455.22 14.8048C453.2 13.4675 451.663 18.9882 451.466 21.1276C454.395 21.9721 455.632 15.0599 455.22 14.8048Z" fill="#FBF891"/>
<path d="M486.705 332.215C486.868 332.128 487.123 331.986 487.586 331.763C488.08 331.498 488.395 331.243 488.67 330.973L488.649 329.65C488.359 329.635 488.008 329.696 487.535 329.919C486.929 330.216 487.881 330.709 487.586 331.375C487.444 331.721 486.965 332.043 486.705 332.215" fill="#FBF891"/>
<path d="M472.163 163.964C472.957 164.132 474.88 164.757 475.033 163.465C473.837 164.081 472.739 163.404 472.163 163.964Z" fill="#FBF891"/>
<path d="M451.552 3.66241C451.597 3.60162 452.04 2.70175 451.852 2.52808C450.718 1.45021 449.904 5.08437 451.552 3.66241Z" fill="#FBF891"/>
<path d="M474.651 115.006C474.651 115.24 474.617 115.453 474.301 115.393C474.57 114.08 472.504 115.495 472.53 116.176C473.64 115.606 475.181 115.698 474.651 115.006" fill="#FBF891"/>
<path d="M473.38 167.546C472.474 166.717 470.703 169.388 472.682 168.298C472.779 168.258 473.914 168.04 473.38 167.546Z" fill="#FBF891"/>
<path d="M472.739 438.73C473.089 440.185 480.122 439.997 478.905 438.501C478.127 437.524 474.418 439.828 472.739 438.73Z" fill="#FBF891"/>
<path d="M478.498 389.308C477.775 388.663 476.255 389.299 475.609 389.787C476.875 389.874 477.578 390.143 478.498 389.308Z" fill="#FBF891"/>
<path d="M481.48 179.629C481.8 179.197 481.745 178.124 481.048 178.18C480.238 178.267 480.498 180.892 481.48 179.629Z" fill="#FBF891"/>
<path d="M49.1177 144.98C48.7411 144.929 48.8507 145.535 49.1177 144.98Z" fill="#FBF891"/>
<path d="M49.9242 22.4974C50.417 22.9316 51.2593 22.5245 51.3863 22.4366C51.839 22.1185 51.3711 22.378 51.3711 22.074C51.3104 23.0868 50.5321 19.3278 49.7234 19.3821C50.0436 19.1823 50.5017 18.8632 50.5017 18.8209C50.3486 17.1232 46.4355 19.7674 49.4303 19.5937C49.3305 19.7349 49.2295 19.9639 49.1177 20.333C49.2903 19.7349 49.6898 22.29 49.9242 22.4974" fill="#FBF891"/>
<path d="M50.2194 212.732C50.9359 212.594 52.4023 212.049 51.6382 211.204C50.4018 209.928 48.0746 213.147 50.2194 212.732Z" fill="#FBF891"/>
<path d="M52.9158 91.9932C53.9459 92.7476 55.0661 91.3853 55.4113 90.4366C54.0371 90.4366 54.1901 91.8662 52.9158 91.9932Z" fill="#FBF891"/>
<path d="M51.2593 324.873V324.888C51.0249 325.565 51.1074 326.007 51.3103 326.134C51.7912 326.439 52.7041 325.6 51.5491 324.207C51.3863 324.47 51.331 324.67 51.2593 324.873Z" fill="#FBF891"/>
<path d="M47.204 17.8484C50.303 18.5485 50.303 15.4973 47.204 17.8484Z" fill="#FBF891"/>
<path d="M63.9799 230.432C62.0945 230.671 58.8261 231.745 59.0139 233.531C60.7029 232.534 62.5243 231.648 63.9799 230.432Z" fill="#FBF891"/>
<path d="M51.5697 421.155C51.0248 417.828 50.2574 424.004 51.3461 424.813C52.297 423.354 51.6739 421.735 51.5697 421.155Z" fill="#FBF891"/>
<path d="M62.7229 91.6176C63.563 90.7166 62.3007 89.7875 61.9392 90.1989C61.6038 90.5604 61.8079 92.6021 62.7229 91.6176Z" fill="#FBF891"/>
<path d="M61.0394 267.697C62.7511 266.95 59.9702 266.233 59.5382 266.691C58.8815 267.387 60.6779 267.881 61.0394 267.697Z" fill="#FBF891"/>
<path d="M53.6712 236.655C54.7881 236.858 55.2234 237.765 56.2611 238.003C57.5507 236.747 54.1293 235.974 53.6712 236.655Z" fill="#FBF891"/>
<path d="M63.4122 71.1762C64.8645 70.4912 63.5164 69.4459 62.9856 69.7477C62.2833 70.1439 63.0463 71.364 63.4122 71.1762Z" fill="#FBF891"/>
<path d="M54.3833 236.268L56.2025 236.187C58.0565 234.177 52.272 234.294 54.3833 236.268Z" fill="#FBF891"/>
<path d="M58.9173 202.194C59.5122 199.769 56.4522 200.934 56.7453 202.285C57.8688 202.081 58.1738 200.909 58.9173 202.194Z" fill="#FBF891"/>
<path d="M52.2971 440.078C50.5755 442.256 54.2357 442.739 52.2971 440.078Z" fill="#FBF891"/>
<path d="M461.326 89.6465C461.646 87.2313 459.072 89.9037 459.102 88.2625C463 88.8899 460.766 85.1461 460.716 82.7353C460.014 84.6251 459.448 87.0033 457.311 89.0668C458.761 90.3455 459.327 89.0082 461.326 89.6465Z" fill="#FBF891"/>
<path d="M429.489 84.307C430.548 83.1314 428.508 83.0587 428.381 83.2595C427.577 84.396 429.403 84.4199 429.489 84.307Z" fill="#FBF891"/>
<path d="M430.94 26.2944C431.352 26.62 432.329 26.035 432.39 25.8754C432.837 24.4969 429.983 25.5378 430.94 26.2944Z" fill="#FBF891"/>
<path d="M442.021 241.997C439.508 242.231 435.092 242.638 436.634 243.667C438.567 244.965 437.789 242.791 438.77 242.486C439.366 242.297 441.869 243.85 442.021 241.997Z" fill="#FBF891"/>
<path d="M450.346 1.13655C446.891 0.580794 449.247 3.76012 450.346 1.13655Z" fill="#FBF891"/>
<path d="M438.231 257.451C436.002 256.906 436.496 257.782 436.841 258.957C436.841 258.025 438.231 258.386 438.231 257.451Z" fill="#FBF891"/>
<path d="M429.317 69.7064C432.217 68.7881 430.126 66.4826 429.174 66.081C427.18 65.2408 425.033 68.7067 429.26 67.9078C428.243 68.4864 427.841 70.1992 429.317 69.7064" fill="#FBF891"/>
<path d="M440.042 45.6243C440.754 46.4319 440.856 45.8848 442.577 45.5353C445.41 44.9676 442.78 44.3239 442.113 43.0105C441.915 42.5752 442.591 40.6518 441.646 40.4694C440.042 40.1101 439.157 44.6333 440.042 45.6243" fill="#FBF891"/>
<path d="M401.617 288.731C401.179 289.21 402.283 290.289 403.093 289.409C403.754 288.666 401.984 288.335 401.617 288.731Z" fill="#FBF891"/>
<path d="M401.617 201.99C401.958 203.461 403.403 202.326 403.438 202.285C403.963 200.863 401.322 202.025 401.617 201.99Z" fill="#FBF891"/>
<path d="M406.878 389.486C405.494 389.66 404.217 393.629 404.192 394.814C404.36 394.636 405.469 396.219 405.682 396.086C407.783 394.926 405.341 391.364 406.878 389.486Z" fill="#FBF891"/>
<path d="M455.765 11.874L455.836 11.8544C457.011 11.5081 456.533 10.7994 455.703 10.4347C454.854 10.045 453.623 10.0449 453.632 11.2031C453.648 11.8132 455.21 11.9749 455.765 11.874" fill="#FBF891"/>
<path d="M399.322 420.397C400.136 421.246 403.403 420.149 402.192 419.186C401.5 420.564 399.79 418.809 399.322 420.397Z" fill="#FBF891"/>
<path d="M423.628 73.2168C423.929 72.9422 424.391 73.9756 424.391 74.298C424.656 74.298 425.379 75.0882 425.521 74.9612C427.266 73.5805 424.111 72.7566 423.628 73.2168Z" fill="#FBF891"/>
<path d="M462.892 342.168C463.504 341.532 463.85 340.727 462.843 340.336C462.578 340.239 461.616 343.535 462.892 342.168Z" fill="#FBF891"/>
<path d="M461.886 200.059C462.171 200.324 463.565 200.14 464.053 199.612C465.651 197.887 460.059 198.374 461.886 200.059Z" fill="#FBF891"/>
<path d="M460.003 16.0791C459.28 15.4159 458.237 18.0546 459.342 17.5586C459.855 17.3295 460.959 16.9518 460.003 16.0791Z" fill="#FBF891"/>
<path d="M464.898 125.584C465.529 125.218 466.806 122.318 466.923 121.87C466.72 122.577 466.587 120.002 467.585 120.394C464.14 119.086 463.244 126.525 464.898 125.584Z" fill="#FBF891"/>
<path d="M466.734 356.958C466.867 356.881 467.544 355.956 467.432 355.829C465.992 354.521 464.776 358.001 466.734 356.958Z" fill="#FBF891"/>
<path d="M456.213 415.31C457.892 418.83 458.517 414.86 456.213 415.31Z" fill="#FBF891"/>
<path d="M456.09 11.9283C456.126 11.988 455.989 12.1519 455.775 12.3343C455.22 12.7967 454.203 13.4838 454.478 13.7367C454.935 14.1611 455.449 14.0514 455.821 13.7019L455.836 13.4197V13.7019C456.411 13.1462 456.706 12.1063 456.09 11.9283" fill="#FBF891"/>
<path d="M464.202 30.5016C465.096 30.9326 465.651 29.3521 465.992 30.4311C465.662 31.6729 464.974 31.1887 464.496 31.3906C464.948 31.4807 465.355 33.5768 466.455 32.9516C467.254 32.5185 467.167 30.557 467.442 30.3714C468.984 29.3739 464.776 29.3413 464.202 30.5016Z" fill="#FBF891"/>
<path d="M470.887 159.263C470.337 160.041 468.755 159.848 468.775 161.16C470.073 161.298 471.349 159.603 470.887 159.263Z" fill="#FBF891"/>
<path d="M462.563 131.517C462.349 132.417 460.94 132.311 461.163 133.023C461.738 134.901 464.109 129.721 464.206 127.074C462.644 126.256 463.377 129.028 463.204 129.308C462.436 130.576 461.942 128.734 461.773 130.077C461.697 130.809 462.695 130.927 462.563 131.517Z" fill="#FBF891"/>
<path d="M469.905 133.42C470.423 136.421 472.357 134.306 469.905 133.42Z" fill="#FBF891"/>
<path d="M464.231 31.5741C464.292 31.4536 464.399 31.4362 464.496 31.3906C464.409 31.3765 464.323 31.408 464.231 31.5741Z" fill="#FBF891"/>
<path d="M466.434 118.619C466.633 120.836 469.645 117.097 468.597 118.145C467.742 118.181 467.564 118.838 466.434 118.619Z" fill="#FBF891"/>
<path d="M424.391 74.2979C423.282 74.2665 424.452 76.1335 424.391 74.2979Z" fill="#FBF891"/>
<path d="M73.7187 459.433C74.4535 459.418 75.1895 459.387 75.9243 459.377C76.1664 459.326 76.4074 459.271 76.657 459.199C76.5072 457.876 74.5198 458.822 73.7187 459.433Z" fill="#FBF891"/>
<path d="M38.4172 208.079C37.9646 207.393 35.2172 208.619 36.2853 209.255C36.4536 208.365 38.6354 209.322 38.4172 208.079Z" fill="#FBF891"/>
<path d="M40.9767 64.3693C39.2617 62.2526 37.5879 64.0642 40.9767 64.3693Z" fill="#FBF891"/>
<path d="M38.8731 335.268C39.2975 335.614 39.6438 335.288 39.5776 334.855C38.9849 331.141 36.916 333.264 37.3871 334.942C37.3361 334.718 38.9208 335.288 38.8731 335.268Z" fill="#FBF891"/>
<path d="M42.3965 15.4973C42.7569 15.1923 43.2681 14.5388 43.1184 14.1339L41.9026 14.5388L41.6736 14.4845C41.2817 15.2704 41.3273 16.3244 42.3965 15.4973" fill="#FBF891"/>
<path d="M45.2654 369.638C46.1663 367.766 43.3072 369.729 44.1919 370.045C44.6402 370.203 45.1481 369.856 45.2654 369.638Z" fill="#FBF891"/>
<path d="M44.9039 340.86C40.9767 338.713 42.4996 342.513 44.9039 340.86Z" fill="#FBF891"/>
<path d="M46.403 265.352C47.2041 263.587 43.1846 263.322 43.8467 265.092C44.2104 266.055 46.1946 265.821 46.403 265.352Z" fill="#FBF891"/>
<path d="M46.403 419.156C45.6323 418.433 42.6733 422.662 46.0697 420.259C46.1305 420.234 46.5832 419.324 46.403 419.156Z" fill="#FBF891"/>
<path d="M32.0054 384.363C32.9074 380.124 29.676 383.116 32.0054 384.363Z" fill="#FBF891"/>
<path d="M30.7039 426.681C31.4865 426.793 32.94 426.436 32.8433 425.516C32.6447 423.618 28.8206 426.427 30.7039 426.681Z" fill="#FBF891"/>
<path d="M37.6639 72.9064C37.5879 73.194 40.2538 73.6738 39.5059 73.9191C41.5868 73.2168 37.9537 70.9981 37.6639 72.9064Z" fill="#FBF891"/>
<path d="M35.9087 36.1341C31.3931 36.0733 34.8145 38.3257 35.9087 36.1341Z" fill="#FBF891"/>
<path d="M30.5302 28.3263C29.3471 27.255 28.9357 30.8783 30.1872 29.4314C30.2404 29.3738 30.7039 28.5043 30.5302 28.3263Z" fill="#FBF891"/>
<path d="M31.4615 427.388C30.668 431.261 33.449 428.68 31.4615 427.388Z" fill="#FBF891"/>
<path d="M23.0612 292.497C24.4755 291.993 25.7379 292.924 26.3067 291.27C25.4926 290.778 23.3412 291.368 23.0612 292.497Z" fill="#FBF891"/>
<path d="M18.8148 113.322C22.1754 114.37 21.5708 110.508 23.0232 109.16C20.6341 109.811 19.6159 112.161 18.8148 113.322Z" fill="#FBF891"/>
<path d="M13.6588 159.45C13.852 160.163 14.5663 159.842 15.1318 159.405C16.6959 158.158 13.3885 158.336 13.6588 159.45Z" fill="#FBF891"/>
<path d="M24.2519 313.954C24.9075 313.241 22.5987 312.264 22.3968 312.916C22.0788 313.893 23.6158 314.661 24.2519 313.954Z" fill="#FBF891"/>
<path d="M6.7238 407.911C7.11456 408.237 8.09691 407.666 8.15336 407.488C8.85022 405.515 6.00088 407.347 6.7238 407.911Z" fill="#FBF891"/>
<path d="M25.2917 341.602C24.191 343.999 28.6458 340.37 25.6608 341.588C25.549 341.648 25.549 341.038 25.2917 341.602Z" fill="#FBF891"/>
<path d="M43.3734 22.0165C44.2277 22.9772 45.21 23.8119 47.0542 23.6838C46.772 22.1186 44.5685 22.6059 43.3734 22.0165Z" fill="#FBF891"/>
<path d="M42.7927 458.833C43.0934 458.965 43.1183 459.367 42.5126 460.267C42.5126 459.601 42.6353 459.148 42.7927 458.833C42.1523 458.552 40.2104 459.611 40.6869 459.983C41.5618 460.625 45.7549 460.472 45.4716 460.894C46.3823 459.545 43.6806 457.204 42.7927 458.833" fill="#FBF891"/>
<path d="M37.2037 454.274C37.9081 456.986 39.9542 453.628 37.2037 454.274Z" fill="#FBF891"/>
<path d="M48.2906 449.13C47.8759 448.733 46.9044 449.502 46.8588 449.537C44.5794 450.59 49.2295 449.995 48.2906 449.13Z" fill="#FBF891"/>
<path d="M30.2078 432.679L30.236 433.779C32.1823 435.56 31.4257 429.861 30.2078 432.679Z" fill="#FBF891"/>
<path d="M68.0048 441.814C65.7199 442.103 65.5169 441.223 67.2384 440.744C66.5546 440.846 66.4222 440.363 65.7611 440.439C64.7734 441.706 67.4089 443.554 68.0048 441.814Z" fill="#FBF891"/>
<path d="M241.357 443.67C240.675 444.393 242.472 444.744 242.832 444.332C243.269 443.874 242.165 442.806 241.357 443.67Z" fill="#FBF891"/>
<path d="M206.197 475.618C208.447 476.168 207.958 475.293 207.587 474.112C207.597 475.039 206.197 474.693 206.197 475.618Z" fill="#FBF891"/>
<path d="M264.045 466.862C264.909 465.925 262.717 465.334 262.559 466.185C262.605 465.925 263.209 467.752 264.045 466.862Z" fill="#FBF891"/>
<path d="M145.394 444.402C145.426 444.205 146.105 444.693 146.14 444.744C146.062 444.546 144.962 445.151 145.789 445.125C149.699 444.982 145.746 442.439 145.394 444.402" fill="#FBF891"/>
<path d="M146.586 447.288C145.079 444.402 141.717 448.052 146.586 447.288Z" fill="#FBF891"/>
<path d="M144.814 448.448C147.018 452.051 147.196 447.441 144.814 448.448Z" fill="#FBF891"/>
<path d="M146.685 440.363C145.191 440.363 143.716 440.399 143.082 441.223C143.877 441.706 146.087 441.162 146.685 440.363Z" fill="#FBF891"/>
<path d="M378.054 472.738C377.148 467.375 373.042 470.485 376.289 473.893C375.479 470.499 377.377 473.323 378.054 472.738Z" fill="#FBF891"/>
<path d="M368.489 469.452C369.907 473.049 373.042 469.904 368.489 469.452Z" fill="#FBF891"/>
<path d="M366.88 456.04C363.038 458.14 367.216 458.054 366.88 456.04Z" fill="#FBF891"/>
<path d="M392.103 447.009C389.67 446.667 390.5 449.303 388.938 449.689C390.322 449.13 391.772 448.596 392.103 447.009Z" fill="#FBF891"/>
<path d="M387.518 473.094C387.518 473.201 388.907 474.031 388.993 473.416C388.993 473.416 388.062 470.54 388.224 472.342C388.19 471.996 388.642 472.022 388.607 472.693C388.617 472.749 387.574 472.723 387.518 473.094" fill="#FBF891"/>
<path d="M362.418 463.113C362.199 463.147 361.991 463.204 362.072 463.494C362.947 464.735 363.69 466.831 365.054 465.569C364.006 465.258 362.546 464.018 363.146 463.086L362.418 463.113Z" fill="#FBF891"/>
<path d="M364.764 467.407C363.431 467.31 362.881 466.822 362.622 468.221C363.985 467.752 364.291 468.515 364.764 467.407Z" fill="#FBF891"/>
<path d="M405.825 463.992C406.019 464.709 406.71 464.389 407.291 463.941C408.853 462.695 405.54 462.878 405.825 463.992Z" fill="#FBF891"/>
<path d="M441.158 447.694L441.101 447.587C440.989 447.675 441.029 447.823 441.158 447.694Z" fill="#FBF891"/>
<path d="M286.055 462.746C285.608 462.587 285.1 462.939 284.987 463.158C284.082 465.035 286.941 463.061 286.055 462.746Z" fill="#FBF891"/>
<path d="M298.242 448.427C297.341 452.67 300.572 449.674 298.242 448.427Z" fill="#FBF891"/>
<path d="M591.19 469.122C591.19 469.726 588.534 469.003 588.32 470.337C589.562 469.874 591.969 470.54 591.19 469.122Z" fill="#FBF891"/>
<path d="M563.886 458.878C562.004 463.342 564.986 461.722 563.886 458.878Z" fill="#FBF891"/>
<path d="M574.602 473.399C573.819 474.255 577.488 473.624 576.765 472.947C575.641 471.884 575.086 472.896 574.602 473.399Z" fill="#FBF891"/>
<path d="M584.723 471.197C582.998 471.354 582.322 471.44 581.457 471.669C581.635 473.196 584.301 471.701 584.723 471.197Z" fill="#FBF891"/>
<path d="M582.907 452.314C583.055 451.944 581.974 451.012 581.432 451.653C580.505 452.67 582.591 453.247 582.907 452.314Z" fill="#FBF891"/>
<path d="M493.803 441.858C494.532 442.505 496.047 441.869 496.698 441.38C495.431 441.294 494.73 441.03 493.803 441.858Z" fill="#FBF891"/>
<path d="M505.573 474.204C505.441 474.286 504.759 475.217 504.875 475.333C506.31 476.656 507.527 473.17 505.573 474.204Z" fill="#FBF891"/>
</svg>
