<svg width="569" height="614" viewBox="0 0 569 614" fill="none" xmlns="http://www.w3.org/2000/svg">
<path d="M331.207 24.8052C331.869 30.7867 327.563 36.1736 321.589 36.8377C315.616 37.5018 310.235 33.1906 309.573 27.2091C308.909 21.2277 313.216 15.8396 319.19 15.1767C325.162 14.5126 330.544 18.8238 331.207 24.8052Z" stroke="#ACACE3" stroke-width="2.02933" stroke-miterlimit="10" stroke-linecap="round" stroke-linejoin="round"/>
<path d="M373.689 44.0666C374.351 50.0481 370.046 55.4362 364.073 56.0991C358.099 56.7631 352.718 52.4519 352.055 46.4705C351.391 40.4891 355.698 35.1022 361.672 34.4381C367.646 33.774 373.026 38.0852 373.689 44.0666Z" stroke="#ACACE3" stroke-width="2.02933" stroke-miterlimit="10" stroke-linecap="round" stroke-linejoin="round"/>
<path d="M333.513 73.5787C334.176 79.5601 329.871 84.9471 323.897 85.6112C317.923 86.2752 312.542 81.964 311.88 75.9826C311.216 70.0012 315.522 64.6131 321.496 63.9502C327.47 63.2861 332.851 67.5973 333.513 73.5787Z" stroke="#ACACE3" stroke-width="2.02933" stroke-miterlimit="10" stroke-linecap="round" stroke-linejoin="round"/>
<path d="M321.496 63.9502L319.248 36.8421" stroke="#ACACE3" stroke-width="2.02933" stroke-miterlimit="10" stroke-linecap="round" stroke-linejoin="round"/>
<path d="M331.685 29.1261L353.405 39.9059" stroke="#ACACE3" stroke-width="2.02933" stroke-miterlimit="10" stroke-linecap="round" stroke-linejoin="round"/>
<path d="M333.121 70.0431C333.727 69.2587 354.81 52.5729 354.81 52.5729" stroke="#ACACE3" stroke-width="2.02933" stroke-miterlimit="10" stroke-linecap="round" stroke-linejoin="round"/>
<path d="M63.6811 234.007C77.6069 258.159 83.8601 280.648 77.647 284.24C71.4339 287.832 55.1084 271.165 41.1814 247.014C27.2555 222.863 21.0024 200.373 27.2155 196.781C33.4286 193.189 49.7553 209.856 63.6811 234.007Z" stroke="#ACACE3" stroke-width="2.02933" stroke-miterlimit="10" stroke-linecap="round" stroke-linejoin="round"/>
<path d="M41.1819 234.007C27.256 258.159 21.0029 280.648 27.216 284.24C33.4291 287.832 49.7546 271.165 63.6816 247.014C77.6074 222.863 83.8606 200.373 77.6475 196.781C71.4344 193.189 55.1077 209.856 41.1819 234.007Z" stroke="#ACACE3" stroke-width="2.02933" stroke-miterlimit="10" stroke-linecap="round" stroke-linejoin="round"/>
<path d="M52.4315 250.358C80.2843 250.358 102.863 244.534 102.863 237.351C102.863 230.168 80.2843 224.345 52.4315 224.345C24.5787 224.345 2 230.168 2 237.351C2 244.534 24.5787 250.358 52.4315 250.358Z" stroke="#ACACE3" stroke-width="2.02933" stroke-miterlimit="10" stroke-linecap="round" stroke-linejoin="round"/>
<path d="M455.71 298.775C455.71 298.775 471.621 313.504 490.687 307.6C509.754 301.698 519.746 319.694 519.746 319.694C519.746 319.694 528.333 332.15 521.049 349.956C521.049 349.956 515.576 360.565 525.554 375.583" stroke="#ACACE3" stroke-width="2.02933" stroke-miterlimit="10" stroke-linecap="round" stroke-linejoin="round"/>
<path d="M482.27 273.787C482.27 273.787 495.04 291.316 486.975 309.594C478.911 327.874 495.609 339.895 495.609 339.895C495.609 339.895 506.971 349.877 525.478 344.694C525.478 344.694 536.636 340.479 550.378 352.143" stroke="#ACACE3" stroke-width="2.02933" stroke-miterlimit="10" stroke-linecap="round" stroke-linejoin="round"/>
<path d="M471.106 307.359L489.327 292.115" stroke="#ACACE3" stroke-width="2.02933" stroke-miterlimit="10" stroke-linecap="round" stroke-linejoin="round"/>
<path d="M461.367 302.378L486.679 282.179" stroke="#ACACE3" stroke-width="2.02933" stroke-miterlimit="10" stroke-linecap="round" stroke-linejoin="round"/>
<path d="M538.254 345.729L520.033 360.972" stroke="#ACACE3" stroke-width="2.02933" stroke-miterlimit="10" stroke-linecap="round" stroke-linejoin="round"/>
<path d="M547.992 350.709L523.752 370.053" stroke="#ACACE3" stroke-width="2.02933" stroke-miterlimit="10" stroke-linecap="round" stroke-linejoin="round"/>
<path d="M486.442 327.894L509.49 309.501" stroke="#ACACE3" stroke-width="2.02933" stroke-miterlimit="10" stroke-linecap="round" stroke-linejoin="round"/>
<path d="M492.188 335.683L516.493 316.288" stroke="#ACACE3" stroke-width="2.02933" stroke-miterlimit="10" stroke-linecap="round" stroke-linejoin="round"/>
<path d="M499.344 342.345L520.981 325.078" stroke="#ACACE3" stroke-width="2.02933" stroke-miterlimit="10" stroke-linecap="round" stroke-linejoin="round"/>
<path d="M64.9265 490.176C64.9265 496.025 60.1895 500.768 54.3475 500.768C48.5043 500.768 43.7686 496.025 43.7686 490.176C43.7686 484.325 48.5043 479.583 54.3475 479.583C60.1895 479.583 64.9265 484.325 64.9265 490.176Z" stroke="#C0C0DA" stroke-width="1.33333" stroke-miterlimit="10"/>
<path d="M542.112 222.554C542.112 225.99 539.331 228.775 535.899 228.775C532.468 228.775 529.685 225.99 529.685 222.554C529.685 219.118 532.468 216.334 535.899 216.334C539.331 216.334 542.112 219.118 542.112 222.554Z" stroke="#C0C0DA" stroke-width="1.33333" stroke-miterlimit="10"/>
<path d="M39.982 375.677C39.982 379.113 37.2006 381.897 33.7689 381.897C30.3372 381.897 27.5558 379.113 27.5558 375.677C27.5558 372.241 30.3372 369.456 33.7689 369.456C37.2006 369.456 39.982 372.241 39.982 375.677Z" stroke="#C0C0DA" stroke-width="1.33333" stroke-miterlimit="10"/>
<path d="M510.581 502.443C510.581 505.879 507.8 508.664 504.368 508.664C500.935 508.664 498.154 505.879 498.154 502.443C498.154 499.007 500.935 496.222 504.368 496.222C507.8 496.222 510.581 499.007 510.581 502.443Z" stroke="#C0C0DA" stroke-width="1.33333" stroke-miterlimit="10"/>
<path d="M212.369 18.4803C212.369 21.9163 209.588 24.7012 206.156 24.7012C202.724 24.7012 199.943 21.9163 199.943 18.4803C199.943 15.0443 202.724 12.2594 206.156 12.2594C209.588 12.2594 212.369 15.0443 212.369 18.4803Z" stroke="#C0C0DA" stroke-width="1.33333" stroke-miterlimit="10"/>
<path d="M403.131 489.433L427.033 462.277" stroke="white" stroke-width="10.72" stroke-miterlimit="10" stroke-linecap="round" stroke-linejoin="round"/>
<path d="M403.711 478.525C412.509 480.515 418.028 489.266 416.042 498.074C414.055 506.883 405.312 512.41 396.517 510.42C387.72 508.431 382.2 499.678 384.187 490.87C386.174 482.063 394.915 476.535 403.711 478.525Z" fill="#009CCA"/>
<path d="M410.045 490.176C410.893 492.272 411.133 494.641 410.597 497.016" stroke="white" stroke-width="1.40133" stroke-miterlimit="10" stroke-linecap="round" stroke-linejoin="round"/>
<path d="M410.286 407.052L427.321 428.432" stroke="white" stroke-width="10.72" stroke-miterlimit="10" stroke-linecap="round" stroke-linejoin="round"/>
<path d="M411.118 417.943C419.866 415.751 425.183 406.872 422.994 398.113C420.805 389.354 411.937 384.03 403.19 386.222C394.441 388.414 389.124 397.292 391.313 406.052C393.503 414.811 402.369 420.134 411.118 417.943Z" fill="#009CCA"/>
<path d="M403.628 390.649C405.484 390.198 407.383 390.231 409.166 390.688" stroke="white" stroke-width="1.40133" stroke-miterlimit="10" stroke-linecap="round" stroke-linejoin="round"/>
<path d="M451.763 414.683C469.05 418.592 479.899 435.792 475.994 453.101C472.089 470.409 454.91 481.271 437.623 477.362C420.336 473.452 409.489 456.252 413.394 438.944C417.298 421.636 434.476 410.774 451.763 414.683Z" fill="#ACACE3"/>
<path d="M422.444 455.019C420.673 450.637 420.172 445.69 421.291 440.73" stroke="white" stroke-width="1.40133" stroke-miterlimit="10" stroke-linecap="round" stroke-linejoin="round"/>
<path d="M455.706 443.546L498.182 438.81" stroke="white" stroke-width="10.72" stroke-miterlimit="10" stroke-linecap="round" stroke-linejoin="round"/>
<path d="M504.557 423.231C513.476 424.559 519.632 432.878 518.305 441.808C516.978 450.739 508.671 456.902 499.751 455.574C490.832 454.245 484.676 445.928 486.003 436.996C487.331 428.066 495.637 421.902 504.557 423.231Z" fill="#009CCA"/>
<path d="M501.742 429.272C503.627 429.587 505.36 430.363 506.821 431.483" stroke="white" stroke-width="1.40133" stroke-miterlimit="10" stroke-linecap="round" stroke-linejoin="round"/>
<path d="M54.4362 110.659L79.0823 98.674" stroke="white" stroke-width="9.01733" stroke-miterlimit="10" stroke-linecap="round" stroke-linejoin="round"/>
<path d="M59.2387 102.83C64.944 107.837 65.5142 116.525 60.5145 122.238C55.5125 127.949 46.8349 128.521 41.1296 123.514C35.4254 118.508 34.8541 109.819 39.8549 104.106C44.8558 98.3948 53.5345 97.8227 59.2387 102.83Z" fill="#009CCA"/>
<path d="M57.3261 107.013C58.3027 108.29 58.9236 109.765 59.178 111.293" stroke="white" stroke-width="1.17867" stroke-miterlimit="10" stroke-linecap="round" stroke-linejoin="round"/>
<path d="M84.7981 32.223L93.6347 71.6183" stroke="white" stroke-width="9.01733" stroke-miterlimit="10" stroke-linecap="round" stroke-linejoin="round"/>
<path d="M81.0454 40.6082C88.3918 42.5049 95.8819 38.0793 97.7762 30.7249C99.6705 23.3693 95.2516 15.8686 87.9053 13.9719C80.5589 12.0764 73.0688 16.502 71.1745 23.8564C69.2802 31.212 73.7003 38.7115 81.0454 40.6082Z" fill="#009CCA"/>
<path d="M86.4536 17.4212C88.0063 17.834 89.3976 18.6219 90.532 19.6764" stroke="white" stroke-width="1.17867" stroke-miterlimit="10" stroke-linecap="round" stroke-linejoin="round"/>
<path d="M117.217 71.2807C128.427 81.1204 129.549 98.1965 119.721 109.421C109.895 120.647 92.8403 121.77 81.6299 111.93C70.4183 102.09 69.2968 85.0152 79.1241 73.7896C88.9515 62.5651 106.005 61.4422 117.217 71.2807Z" fill="#ACACE3"/>
<path d="M93.0722 110.793C90.583 109.968 88.2139 108.641 86.1193 106.801C82.0197 103.204 79.7248 98.3122 79.309 93.2721" stroke="white" stroke-width="1.17867" stroke-miterlimit="10" stroke-linecap="round" stroke-linejoin="round"/>
<path d="M112.681 93.6665L153.978 112.369" stroke="white" stroke-width="9.01733" stroke-miterlimit="10" stroke-linecap="round" stroke-linejoin="round"/>
<path d="M164.938 103.416C170.999 107.985 172.213 116.607 167.651 122.676C163.089 128.744 154.477 129.96 148.416 125.392C142.356 120.824 141.14 112.201 145.702 106.133C150.265 100.064 158.877 98.8478 164.938 103.416Z" fill="#009CCA"/>
<path d="M159.4 106.436C160.666 107.426 161.637 108.697 162.267 110.113" stroke="white" stroke-width="1.17867" stroke-miterlimit="10" stroke-linecap="round" stroke-linejoin="round"/>
<path d="M486.597 101.529L478.817 106.045C472.393 116.811 462.186 123.265 450.77 125.717L434.657 170.207L462.549 186.083L472.608 157.969C472.608 157.969 493.409 152.79 506.182 136.71C518.954 120.63 497.309 100.759 497.309 100.759L486.597 101.529Z" fill="#FFB89B"/>
<path d="M471.699 95.5603L459.492 148.946C458.78 152.059 461.603 154.826 464.697 154.045L522.971 139.355C526.103 138.566 527.26 134.716 525.082 132.328L487.899 91.5381L471.699 95.5603Z" fill="#FEFFFF"/>
<path d="M477.782 50.7372L461.594 54.7559L473.896 104.427L490.082 100.408L477.782 50.7372Z" fill="#FEFFFF"/>
<path d="M477.782 50.7373C478.199 52.4252 474.914 54.6923 470.444 55.8022C465.975 56.9122 462.012 56.4439 461.594 54.756C461.176 53.068 464.46 50.801 468.931 49.691C473.401 48.5811 477.365 49.0494 477.782 50.7373Z" fill="#CCCAE4"/>
<path d="M507.946 122.592C507.946 122.592 497.998 107.621 480.784 126.409C480.784 126.409 499.91 137.355 507.946 122.592Z" fill="#C0C0F1"/>
<path d="M472.041 121.085L466.709 143.153C466.151 145.464 468.24 147.543 470.544 146.971L514.522 136.052C516.903 135.461 517.735 132.498 516.009 130.752L507.947 122.591C507.947 122.591 495.499 129.074 488.883 124.45C482.37 119.898 472.041 121.085 472.041 121.085Z" fill="#ACACE3"/>
<path d="M477.126 134.843C477.259 135.382 476.932 135.925 476.395 136.059C475.856 136.193 475.313 135.864 475.18 135.326C475.046 134.788 475.374 134.243 475.912 134.11C476.449 133.977 476.993 134.305 477.126 134.843Z" fill="#FEFFFF"/>
<path d="M498.099 128.602C498.231 129.14 497.904 129.685 497.366 129.818C496.829 129.951 496.285 129.623 496.152 129.085C496.017 128.546 496.346 128.003 496.884 127.868C497.421 127.735 497.966 128.063 498.099 128.602Z" fill="#FEFFFF"/>
<path d="M490.669 136.877C490.863 137.662 490.386 138.457 489.602 138.652C488.817 138.847 488.023 138.368 487.829 137.582C487.633 136.797 488.111 136.002 488.896 135.807C489.681 135.612 490.475 136.091 490.669 136.877Z" fill="#FEFFFF"/>
<path d="M445.065 141.466L452.678 110.868C453.318 109.11 454.482 107.593 456.012 106.521L469.237 99.5441C472.718 97.1036 477.553 99.0947 478.314 103.281C478.631 105.028 478.137 106.824 476.972 108.162L465.916 120.852L455.008 144.982L445.065 141.466Z" fill="#FFB89B"/>
<path d="M490.738 89.3257L485.941 93.3585C483.663 95.2741 483.225 98.6983 484.936 101.202C486.655 103.717 489.951 104.446 492.477 102.873L497.797 99.557C500.636 97.7877 501.348 93.8563 499.327 91.0962L498.804 90.3802C496.866 87.7322 493.204 87.2533 490.738 89.3257Z" fill="#FFB89B"/>
<path d="M506.387 114.858L501.939 118.432C499.827 120.13 499.396 123.135 500.953 125.317C502.514 127.508 505.542 128.122 507.879 126.722L512.802 123.773C515.43 122.2 516.116 118.747 514.278 116.342L513.801 115.718C512.04 113.412 508.671 113.022 506.387 114.858Z" fill="#FFB89B"/>
<path d="M502.253 107.695L496.919 111.474C494.384 113.268 493.792 116.351 495.564 118.539C497.34 120.734 500.889 121.277 503.678 119.781L509.558 116.627C512.695 114.945 513.599 111.397 511.504 108.992L510.96 108.367C508.95 106.058 504.996 105.754 502.253 107.695Z" fill="#FFB89B"/>
<path d="M498.732 96.8268L489.99 103.773C487.712 105.689 487.273 109.113 488.987 111.617C490.704 114.131 493.999 114.862 496.525 113.287L505.789 107.058C508.628 105.289 509.34 101.357 507.321 98.5972L506.798 97.8813C504.86 95.232 501.197 94.7543 498.732 96.8268Z" fill="#FFB89B"/>
<path d="M489.99 103.773L500.341 95.8863" stroke="#FC9C7F" stroke-width="1.98" stroke-miterlimit="10" stroke-linecap="round" stroke-linejoin="round"/>
<path d="M500.366 120.943L511.18 114.149" stroke="#FC9C7F" stroke-width="1.98" stroke-miterlimit="10" stroke-linecap="round" stroke-linejoin="round"/>
<path d="M495.194 114.029L505.789 107.058" stroke="#FC9C7F" stroke-width="1.98" stroke-miterlimit="10" stroke-linecap="round" stroke-linejoin="round"/>
<path d="M448.706 42.2946C448.991 46.2979 445.981 49.774 441.984 50.0594C437.985 50.3461 434.513 47.3324 434.228 43.3302C433.942 39.3268 436.951 35.8508 440.949 35.5641C444.948 35.2787 448.419 38.2912 448.706 42.2946Z" fill="white"/>
<path d="M496.722 37.0327C496.89 39.3777 495.127 41.4147 492.783 41.5822C490.441 41.7509 488.407 39.9851 488.24 37.6402C488.072 35.2941 489.835 33.257 492.178 33.0895C494.52 32.922 496.554 34.6878 496.722 37.0327Z" fill="white"/>
<path d="M474.032 9.50998C474.435 15.1505 470.194 20.0503 464.56 20.4525C458.927 20.8559 454.033 16.6108 453.631 10.9691C453.228 5.32852 457.468 0.428728 463.103 0.0265045C468.736 -0.376896 473.629 3.86944 474.032 9.50998Z" fill="white"/>
<path d="M239.595 271.686C239.856 288.567 253.045 302.403 269.873 303.451L316.569 311.368L407.493 327.339C426.188 328.502 442.44 314.625 444.246 295.959C446.203 275.737 431.267 259.75 410.232 257.807C392.315 256.151 362.039 251.544 330.951 246.385C307.468 242.487 285.341 239.046 272.311 238.863C254.112 238.61 239.315 253.465 239.595 271.686Z" fill="white"/>
<path d="M437.077 153.341L377.823 280.875C371.074 299.374 381.13 319.768 399.901 325.652C418.888 331.6 438.946 320.267 443.675 300.92L478.358 168.188L437.077 153.341Z" fill="white"/>
<path d="M431.266 167.627L474.523 183.945" stroke="#CEEFF5" stroke-width="1.852" stroke-miterlimit="10"/>
<path d="M391.721 250.597L381.536 274.191" stroke="#CEEFF5" stroke-width="1.852" stroke-miterlimit="10"/>
<path d="M276.438 120.173C276.438 120.173 344.473 126.554 325.854 168.026C314.812 192.618 276.373 184.218 276.373 184.218L276.438 120.173Z" fill="#010101"/>
<path d="M227.349 155.258C227.349 175.585 246.602 192.064 270.352 192.064C294.101 192.064 313.353 175.585 313.353 155.258C313.353 134.93 294.101 118.452 270.352 118.452C246.602 118.452 227.349 134.93 227.349 155.258Z" fill="#010101"/>
<path d="M295.74 189.267C297.852 196.246 305.216 200.19 312.188 198.074C319.158 195.959 323.098 188.586 320.984 181.606C318.872 174.625 311.508 170.682 304.536 172.798C297.566 174.913 293.626 182.286 295.74 189.267Z" fill="#FC9C7F"/>
<path d="M280.345 218.604L277.198 239.054L238.188 237.864L245.356 204.921L280.345 218.604Z" fill="#FFB89B"/>
<path d="M278.231 236.701L253.217 214.529L280.562 218.77L278.231 236.701Z" fill="#FC9C7F"/>
<path d="M305.071 138.31C308.398 141.125 310.517 145.077 311.369 149.34C313.892 161.974 318.847 184.233 314.38 197.644C308.573 215.085 294.428 227.452 271.57 223.1C271.57 223.1 244.178 220.332 238.545 185.594C229.569 130.247 276.581 114.203 305.071 138.31Z" fill="#FFB89B"/>
<path d="M300.703 183.417L302.808 189.158C302.967 189.878 302.531 190.595 301.82 190.786L298.566 191.39" stroke="#010101" stroke-width="2.03467" stroke-miterlimit="10" stroke-linecap="round" stroke-linejoin="round"/>
<g opacity="0.479996">
<g opacity="0.479996">
<path opacity="0.479996" d="M294.944 175.36C294.84 184.411 287.584 191.666 278.738 191.563C269.892 191.462 262.806 184.041 262.911 174.991C263.015 165.94 270.27 158.685 279.115 158.787C287.961 158.889 295.048 166.309 294.944 175.36Z" fill="#A1E1EB"/>
</g>
</g>
<g opacity="0.479996">
<g opacity="0.479996">
<path opacity="0.479996" d="M330.751 175.652C330.651 184.344 324.425 191.318 316.844 191.231C309.263 191.144 303.199 184.027 303.299 175.335C303.399 166.644 309.625 159.668 317.207 159.755C324.788 159.844 330.851 166.96 330.751 175.652Z" fill="#A1E1EB"/>
</g>
</g>
<g opacity="0.149994">
<g opacity="0.149994">
<path opacity="0.149994" d="M281.864 159.062L262.91 177.716L267.405 186.561L290.436 162.99L281.864 159.062Z" fill="white"/>
</g>
</g>
<g opacity="0.149994">
<g opacity="0.149994">
<path opacity="0.149994" d="M320.11 159.434L302.343 176.919L306.305 185.308L327.306 163.813L320.11 159.434Z" fill="white"/>
</g>
</g>
<path d="M294.944 175.36C294.84 184.411 287.584 191.666 278.738 191.563C269.892 191.462 262.806 184.041 262.911 174.991C263.015 165.94 270.27 158.685 279.115 158.787C287.961 158.889 295.048 166.309 294.944 175.36Z" stroke="white" stroke-width="2.07333" stroke-miterlimit="10" stroke-linecap="round" stroke-linejoin="round"/>
<path d="M330.751 175.652C330.651 184.344 324.425 191.318 316.844 191.231C309.263 191.144 303.199 184.027 303.299 175.335C303.399 166.644 309.625 159.668 317.207 159.755C324.788 159.844 330.851 166.96 330.751 175.652Z" stroke="white" stroke-width="2.07333" stroke-miterlimit="10" stroke-linecap="round" stroke-linejoin="round"/>
<path d="M294.943 175.36C294.943 175.36 298.532 171.306 303.299 175.335" stroke="white" stroke-width="2.07333" stroke-miterlimit="10" stroke-linecap="round" stroke-linejoin="round"/>
<path d="M262.91 174.991L248.595 180.443" stroke="white" stroke-width="2.07333" stroke-miterlimit="10" stroke-linecap="round" stroke-linejoin="round"/>
<g opacity="0.149994">
<g opacity="0.149994">
<path opacity="0.149994" d="M294.674 171.017L274.59 191.142L280.944 191.923L294.75 177.716L294.674 171.017Z" fill="white"/>
</g>
</g>
<g opacity="0.149994">
<g opacity="0.149994">
<path opacity="0.149994" d="M330.751 170.484L310.666 190.609L317.02 191.39L330.827 177.184L330.751 170.484Z" fill="white"/>
</g>
</g>
<path d="M290.436 204.31C290.436 205.994 291.799 207.359 293.481 207.359C295.164 207.359 296.528 205.994 296.528 204.31C296.528 202.625 295.164 201.261 293.481 201.261C291.799 201.261 290.436 202.625 290.436 204.31Z" fill="#010101"/>
<path d="M241.635 167.753C243.553 168.556 283.961 148.512 283.194 127.434C283.049 123.439 277.021 120.891 273.172 121.955C261.186 125.273 231.945 130.235 234.861 169.532L241.635 167.753Z" fill="#010101"/>
<path d="M276.801 130.044C276.801 130.044 295.169 126.987 309.467 143.909C309.467 143.909 301.891 119.69 264.943 118.451L251.037 149.425L276.801 130.044Z" fill="#010101"/>
<path d="M250.009 162.99L247.399 190.627L232.265 177.716L233.139 162.99H250.009Z" fill="#010101"/>
<path d="M218.916 193.391C221.479 201.861 230.416 206.647 238.874 204.08C247.335 201.512 252.115 192.565 249.55 184.095C246.986 175.625 238.05 170.839 229.591 173.406C221.13 175.973 216.351 184.921 218.916 193.391Z" fill="#FFB89B"/>
<path d="M227.013 184.061C227.013 184.061 238.646 178.927 241.868 193.617" stroke="#010101" stroke-width="2.03467" stroke-miterlimit="10" stroke-linecap="round" stroke-linejoin="round"/>
<path d="M188.3 239.655C172.648 233.377 154.807 240.213 147.342 255.352L122.012 295.419L70.917 373.891C62.6258 390.707 69.1311 411.076 85.6298 419.953H85.631C103.504 429.573 125.77 421.886 133.916 403.277C141.138 386.777 159.562 360.519 176.323 333.8C188.986 313.617 200.7 294.511 205.901 282.547C213.164 265.838 205.194 246.434 188.3 239.655Z" fill="white"/>
<path d="M244.769 236.31L238.188 236.445L231.256 261.154L291.267 264.432L294.369 248.732L271.189 236.31H244.769Z" fill="#FFB89B"/>
<path d="M276.866 238.918L304.031 252.036C307.952 253.904 310.417 258.283 310.217 263.025L303.661 417.93L192.531 416.423L185.971 256.298C185.773 247.76 191.907 237.531 199.56 236.872H237.696L260.238 256.298L276.866 238.918Z" fill="#A1E1EB"/>
<path d="M278.31 241.383L307.694 272.643L292.304 289.063L306.326 303.905L287.181 406.742" stroke="#CEEFF5" stroke-width="1.852" stroke-miterlimit="10" stroke-linecap="round" stroke-linejoin="round"/>
<path d="M331.16 313.931C331.16 313.931 338.995 290.197 329.666 272.121" stroke="#CEEFF5" stroke-width="1.852" stroke-miterlimit="10" stroke-linecap="round" stroke-linejoin="round"/>
<mask id="mask0" mask-type="alpha" maskUnits="userSpaceOnUse" x="40" y="96" width="529" height="518">
<path d="M72.9423 276.766L384.607 96.8266L545.289 375.136C545.289 375.136 367.107 599.055 233.624 555.075C114.427 515.802 72.9423 276.766 72.9423 276.766Z" fill="#C4C4C4"/>
</mask>
<g mask="url(#mask0)">
<path d="M200.914 557.493H299.122V414.734H200.914V557.493Z" fill="#009CCA"/>
<path d="M277.126 240.164L286.073 306.687L279.632 557.493H342.004C342.004 557.493 349.776 473.562 332.596 400.402V308.446L312.068 245.469L277.197 239.055L277.126 240.164Z" fill="white"/>
<path d="M238.188 236.445L244.693 311.612L239.713 557.493H151.278C151.278 557.493 165.179 502.392 172.29 399.294L165.79 293.368L176.634 237.331L238.188 236.445Z" fill="#FFFAFA"/>
</g>
<path d="M237.429 237.33L210.291 268.981L226.354 289.974L214.519 305.137L236.894 406.742" stroke="#CEEFF5" stroke-width="1.852" stroke-miterlimit="10" stroke-linecap="round" stroke-linejoin="round"/>
<path d="M230.035 307.522H192.396V283.71H230.035V307.522Z" fill="white" stroke="#010101" stroke-width="1.62267" stroke-miterlimit="10" stroke-linecap="round" stroke-linejoin="round"/>
<path d="M233.245 289.984H189.24V281.646H233.245V289.984Z" fill="#009CCA"/>
<path d="M281.392 427.53L303.232 342.633L207.166 320.041L181.505 424.801L261.442 444.023L281.392 427.53Z" fill="#ACACE3"/>
<path d="M205.914 325.38L301.979 347.972L303.233 342.633L207.167 320.042L205.914 325.38Z" fill="#010101"/>
<path d="M252.707 323.572L260.884 325.495C266.771 326.879 270.423 332.781 269.04 338.675L239.543 331.738C240.926 325.844 246.819 322.187 252.707 323.572Z" fill="#010101"/>
<path d="M239.762 409.039L270.414 399.579C273.708 398.562 277.194 400.457 278.14 403.776C278.916 406.506 277.729 409.414 275.263 410.816L264.496 416.943L283.382 419.163L285.36 412.108C285.36 412.108 302.453 420.168 289.793 432.231C289.793 432.231 290.004 439.092 285.729 442.795C285.729 442.795 285.425 448.957 279.68 452.127C279.68 452.127 273.614 463.631 263.928 460.002C254.243 456.374 228.232 443.772 228.232 443.772L239.762 409.039Z" fill="#FFB89B"/>
<path d="M289.793 432.231C289.793 432.231 283.846 436.955 274.416 433.905" stroke="#FC9C7F" stroke-width="2.01467" stroke-miterlimit="10" stroke-linecap="round" stroke-linejoin="round"/>
<path d="M285.728 442.795C285.728 442.795 280.412 445.428 272.82 442.893" stroke="#FC9C7F" stroke-width="2.01467" stroke-miterlimit="10" stroke-linecap="round" stroke-linejoin="round"/>
<path d="M279.679 452.128C279.679 452.128 276.336 453.847 270.785 451.282" stroke="#FC9C7F" stroke-width="2.01467" stroke-miterlimit="10" stroke-linecap="round" stroke-linejoin="round"/>
<path d="M228.232 443.772L200.742 434.026L216.562 403.976L239.763 409.039L228.232 443.772Z" fill="#FFB89B"/>
<path d="M235.038 405.929L110.325 356.309C91.2673 351.434 72.0061 363.491 68.0372 382.781C64.0224 402.29 77.2897 421.14 96.988 423.918L222.537 444.976L235.038 405.929Z" fill="white"/>
<path d="M214.839 398.274L203.626 442.16" stroke="#CEEFF5" stroke-width="1.852" stroke-miterlimit="10"/>
<path d="M151.178 371.791L120.61 360.207" stroke="#CEEFF5" stroke-width="1.852" stroke-miterlimit="10"/>
<path d="M167.358 436.757L222.537 444.977" stroke="#CEEFF5" stroke-width="1.852" stroke-miterlimit="10"/>
</svg>
